<svg width="64" height="40" viewBox="0 0 64 40" fill="none" xmlns="http://www.w3.org/2000/svg">
<path d="M63.3954 22.995C61.9966 18.6774 59.7286 14.6918 56.7313 11.2838L59.8025 8.21253C60.0046 8.01728 60.1659 7.78372 60.2768 7.52548C60.3877 7.26725 60.4461 6.9895 60.4486 6.70846C60.451 6.42742 60.3975 6.1487 60.291 5.88857C60.1846 5.62845 60.0274 5.39212 59.8287 5.19339C59.63 4.99465 59.3937 4.83749 59.1335 4.73106C58.8734 4.62463 58.5947 4.57108 58.3136 4.57352C58.0326 4.57596 57.7548 4.63435 57.4966 4.74528C57.2384 4.85621 57.0048 5.01746 56.8096 5.21962L53.7373 8.2919C47.6642 2.93894 39.8442 -0.00999478 31.7487 2.54522e-05C17.2784 2.54522e-05 4.56174 9.24121 0.103074 22.9961C0.017393 23.2605 -0.0153696 23.5392 0.00665639 23.8163C0.0286824 24.0933 0.105066 24.3634 0.231445 24.6109C0.357825 24.8585 0.531726 25.0787 0.743219 25.259C0.954712 25.4394 1.19966 25.5763 1.46406 25.662C1.72847 25.7477 2.00717 25.7804 2.28424 25.7584C2.56131 25.7364 2.83133 25.66 3.07888 25.5336C3.32643 25.4072 3.54666 25.2333 3.72701 25.0218C3.90735 24.8103 4.04427 24.5654 4.12995 24.301C8.02031 12.2976 19.1199 4.23328 31.7487 4.23328C38.722 4.22278 45.4653 6.72716 50.7412 11.2869L34.7607 27.2674C33.8267 26.7943 32.7946 26.5475 31.7477 26.5467C28.0383 26.5467 25.021 29.564 25.021 33.2734C25.021 36.9828 28.0383 40 31.7477 40C35.4571 40 38.4732 36.9828 38.4732 33.2734C38.4726 32.2267 38.2257 31.195 37.7525 30.2614L53.7341 14.2798C56.2607 17.2118 58.1757 20.6193 59.3665 24.3021C59.54 24.8359 59.9183 25.2791 60.4184 25.5343C60.9184 25.7895 61.4993 25.8358 62.0334 25.663C62.2979 25.5775 62.5429 25.4406 62.7544 25.2603C62.9659 25.0799 63.1398 24.8597 63.2661 24.6121C63.3924 24.3645 63.4687 24.0944 63.4905 23.8173C63.5123 23.5402 63.4793 23.2615 63.3933 22.9972L63.3954 22.995ZM31.7498 35.7657C30.375 35.7657 29.2564 34.6471 29.2564 33.2723C29.2564 31.8976 30.375 30.7789 31.7498 30.7789C33.1245 30.7789 34.2421 31.8976 34.2421 33.2723C34.2421 34.6471 33.1235 35.7657 31.7498 35.7657Z" fill="#EF6C1E"/>
</svg>
