<svg width="48" height="55" viewBox="0 0 48 55" fill="none" xmlns="http://www.w3.org/2000/svg">
<path d="M47.5552 14.3506C47.5545 14.3106 47.5518 14.2707 47.5472 14.231C47.5458 14.2185 47.5447 14.206 47.5429 14.1937C47.536 14.1454 47.5264 14.0976 47.514 14.0504C47.5124 14.0442 47.51 14.0384 47.5083 14.0323C47.4966 13.9912 47.4826 13.9509 47.4668 13.9112C47.4617 13.8985 47.4562 13.8859 47.4508 13.8734C47.4351 13.8374 47.4176 13.8022 47.3985 13.7678C47.3937 13.7593 47.3894 13.7503 47.3845 13.7418C47.3591 13.6985 47.3312 13.6568 47.3008 13.6169C47.2985 13.6138 47.2956 13.6108 47.2932 13.6077C47.2654 13.5721 47.2355 13.538 47.2039 13.5057C47.1952 13.4967 47.1861 13.488 47.1771 13.4793C47.149 13.4521 47.1195 13.4263 47.0889 13.4019C47.0793 13.3942 47.0703 13.3862 47.0604 13.3789C47.0215 13.3492 46.9808 13.3219 46.9386 13.2971L24.4047 0.169206C24.2146 0.0583882 23.9985 0 23.7784 0C23.5583 0 23.3422 0.0583882 23.1521 0.169206L0.618063 13.297C0.575134 13.322 0.534941 13.3496 0.496242 13.3787C0.486412 13.3861 0.477329 13.3942 0.467747 13.4018C0.391907 13.4622 0.323342 13.5313 0.263427 13.6076C0.260938 13.6107 0.2582 13.6137 0.255836 13.6168C0.225225 13.6569 0.197601 13.6987 0.172216 13.7417C0.167239 13.7502 0.162884 13.7591 0.158156 13.7677C0.139049 13.802 0.121608 13.8372 0.105893 13.8732C0.100418 13.8858 0.0949429 13.8984 0.0898411 13.9111C0.074038 13.9508 0.0601016 13.9911 0.0484048 14.0321C0.0466627 14.0382 0.0442983 14.0442 0.0426807 14.0503C0.0301128 14.0973 0.0209047 14.1453 0.0138119 14.1935C0.0120699 14.2059 0.01095 14.2184 0.00945677 14.2309C0.0048711 14.2706 0.00221349 14.3105 0.0014931 14.3504C0.00136867 14.3577 1.346e-09 14.3648 1.346e-09 14.3721V40.6277C-1.01186e-05 40.8453 0.0570459 41.0591 0.165475 41.2477C0.273904 41.4364 0.429914 41.5934 0.617939 41.7029L23.1519 54.8307C23.1555 54.8328 23.1593 54.834 23.1629 54.836C23.2073 54.8614 23.2531 54.8847 23.3008 54.9045L23.3025 54.9051C23.3594 54.9283 23.418 54.9473 23.4778 54.9617C23.515 54.9709 23.5529 54.9784 23.5913 54.9842C23.6041 54.9862 23.6168 54.9886 23.6296 54.9901C23.6785 54.9959 23.7279 54.9998 23.7783 54.9998C23.8287 54.9998 23.8783 54.9959 23.927 54.9901C23.9398 54.9886 23.9525 54.9862 23.9654 54.9842C24.0038 54.9784 24.0416 54.9709 24.0788 54.9617C24.0909 54.9587 24.103 54.9559 24.1151 54.9524C24.1626 54.9391 24.2091 54.9238 24.2542 54.9051L24.2559 54.9045C24.3033 54.8846 24.3493 54.8617 24.3938 54.836C24.3974 54.834 24.4011 54.8327 24.4047 54.8307L46.9387 41.7029C47.1268 41.5934 47.2828 41.4364 47.3912 41.2477C47.4996 41.0591 47.5567 40.8453 47.5567 40.6277V14.3721C47.5567 14.3649 47.5553 14.3579 47.5552 14.3506ZM23.7783 26.0599L14.9833 20.9361L35.0453 9.24841L43.8404 14.3722L23.7783 26.0599ZM23.7783 2.68451L32.5733 7.80833L12.5113 19.496L3.71634 14.3722L23.7783 2.68451ZM45.068 39.9125L25.0227 51.5905V46.5384C25.0227 45.8512 24.4656 45.2941 23.7783 45.2941C23.0911 45.2941 22.534 45.8512 22.534 46.5384V51.5905L2.48868 39.9125V16.5373L11.8991 22.0196L11.9011 22.0208L22.534 28.2151V41.561C22.534 42.2483 23.0911 42.8054 23.7783 42.8054C24.4656 42.8054 25.0227 42.2483 25.0227 41.561V28.2151L45.068 16.5373V39.9125Z" fill="#EF6C1E"/>
<path d="M31.6938 30.8448C31.776 30.9861 31.8852 31.1097 32.0152 31.2087C32.1452 31.3077 32.2935 31.3801 32.4515 31.4218C32.6095 31.4635 32.7742 31.4736 32.9361 31.4516C33.0981 31.4296 33.2541 31.376 33.3953 31.2936L37.9476 28.6416C38.5414 28.2957 38.7423 27.5339 38.3964 26.9401C38.0505 26.3463 37.2886 26.1454 36.6949 26.4912L32.1426 29.1433C31.5488 29.4892 31.3478 30.251 31.6938 30.8448Z" fill="#EF6C1E"/>
</svg>
