<svg width="45" height="45" viewBox="0 0 45 45" fill="none" xmlns="http://www.w3.org/2000/svg">
<path d="M43.7169 37.9917L33.2726 27.5474C35.6165 23.7973 36.4982 19.3156 35.7496 14.9571C35.0011 10.5985 32.6745 6.66788 29.2137 3.91469C25.7528 1.16151 21.3998 -0.221651 16.9845 0.0289496C12.5692 0.27955 8.40058 2.14638 5.27348 5.27348C2.14638 8.40058 0.27955 12.5692 0.0289496 16.9845C-0.221651 21.3998 1.16151 25.7528 3.91469 29.2137C6.66788 32.6745 10.5985 35.0011 14.9571 35.7496C19.3156 36.4982 23.7973 35.6165 27.5474 33.2726L37.9917 43.7169C38.3629 44.1136 38.81 44.4316 39.3066 44.6519C39.8031 44.8723 40.3389 44.9905 40.8821 44.9994C41.4253 45.0084 41.9647 44.9081 42.4683 44.7043C42.9718 44.5005 43.4293 44.1975 43.8133 43.8133C44.1974 43.4291 44.5002 42.9715 44.7038 42.4679C44.9074 41.9642 45.0076 41.4248 44.9984 40.8816C44.9892 40.3385 44.8708 39.8027 44.6503 39.3062C44.4298 38.8097 44.1116 38.3627 43.7148 37.9917H43.7169ZM2.2743 18.0772C2.27472 14.9513 3.20202 11.8958 4.93896 9.29697C6.67589 6.69813 9.14445 4.67269 12.0325 3.47677C14.9205 2.28085 18.0983 1.96816 21.164 2.57825C24.2298 3.18833 27.0458 4.69378 29.2559 6.90423C31.4661 9.11469 32.9711 11.9309 33.5808 14.9967C34.1905 18.0625 33.8774 21.2403 32.6811 24.1281C31.4847 27.016 29.459 29.4843 26.8599 31.2209C24.2608 32.9574 21.2052 33.8843 18.0793 33.8843C13.8886 33.8798 9.87081 32.2129 6.90771 29.2494C3.94461 26.2859 2.27825 22.2679 2.2743 18.0772ZM42.21 42.21C41.8454 42.559 41.3601 42.7538 40.8554 42.7538C40.3507 42.7538 39.8654 42.559 39.5008 42.21L29.3229 32.0321C30.3201 31.2268 31.2289 30.3179 32.0342 29.3208L42.21 39.4987C42.5692 39.8584 42.771 40.346 42.771 40.8543C42.771 41.3627 42.5692 41.8503 42.21 42.21Z" fill="#EF6C1E"/>
<path d="M23.9003 13.2408L16.1289 21.0144L12.6205 17.5038C12.4204 17.3037 12.1489 17.1913 11.8659 17.1913C11.5829 17.1913 11.3115 17.3037 11.1114 17.5038C10.9113 17.7039 10.7988 17.9754 10.7988 18.2584C10.7988 18.5414 10.9113 18.8128 11.1114 19.0129L15.3744 23.2759C15.4734 23.3751 15.591 23.4539 15.7204 23.5076C15.8499 23.5613 15.9887 23.589 16.1289 23.589C16.2691 23.589 16.4079 23.5613 16.5374 23.5076C16.6669 23.4539 16.7845 23.3751 16.8835 23.2759L25.4094 14.7499C25.6095 14.5498 25.722 14.2784 25.722 13.9954C25.722 13.7124 25.6095 13.4409 25.4094 13.2408C25.2093 13.0407 24.9379 12.9283 24.6549 12.9283C24.3719 12.9283 24.1005 13.0407 23.9003 13.2408Z" fill="#EF6C1E"/>
</svg>
