<svg width="36" height="45" viewBox="0 0 36 45" fill="none" xmlns="http://www.w3.org/2000/svg">
<path fill-rule="evenodd" clip-rule="evenodd" d="M29.2619 34.0598H11.5202C10.1757 34.0598 10.1757 32.0035 11.5202 32.0035H29.2619C30.6063 32.0035 30.6063 34.0598 29.2619 34.0598ZM32.188 39.8858H30.6063V41.4675C30.6063 43.4183 29.0246 45 27.1002 45H3.53251C1.58172 45 0 43.4183 0 41.4675V8.62039C0 6.6696 1.58172 5.08787 3.53251 5.08787H5.08787V3.53251C5.08787 1.58172 6.6696 0 8.62039 0H24.7012C25.1494 0 25.413 0.26362 25.413 0.26362L25.4394 0.289982L35.4042 10.2548C35.5887 10.4394 35.7206 10.703 35.6942 10.993V36.3796C35.6942 38.304 34.1125 39.8858 32.188 39.8858ZM28.5501 39.8858H8.62039C6.6696 39.8858 5.08787 38.304 5.08787 36.3796V7.14411H3.53251C2.71529 7.14411 2.05624 7.80316 2.05624 8.62039V41.4675C2.05624 42.2847 2.71529 42.9438 3.53251 42.9438H27.1002C27.891 42.9438 28.5501 42.2847 28.5501 41.4675V39.8858ZM23.6995 2.05624H8.62039C7.80316 2.05624 7.14411 2.71529 7.14411 3.53251V36.3796C7.14411 37.1705 7.80316 37.8295 8.62039 37.8295H32.188C32.9789 37.8295 33.638 37.1705 33.638 36.3796V12.0211H24.7276C24.1476 12.0211 23.6995 11.5466 23.6995 10.993V2.05624ZM25.7557 9.96485H32.188L25.7557 3.50615V9.96485ZM20.7996 12.3374H11.5202C10.1757 12.3374 10.1757 10.2812 11.5202 10.2812H20.7996C22.1441 10.2812 22.1441 12.3374 20.7996 12.3374ZM16.9508 6.90685H11.5202C10.1757 6.90685 10.1757 4.85062 11.5202 4.85062H16.9508C18.2953 4.85062 18.2953 6.90685 16.9508 6.90685ZM29.2619 17.768H11.5202C10.1757 17.768 10.1757 15.7118 11.5202 15.7118H29.2619C30.6063 15.7118 30.6063 17.768 29.2619 17.768ZM29.2619 23.1986H11.5202C10.1757 23.1986 10.1757 21.1424 11.5202 21.1424H29.2619C30.6063 21.1424 30.6063 23.1986 29.2619 23.1986ZM29.2619 28.6292H11.5202C10.1757 28.6292 10.1757 26.5729 11.5202 26.5729H29.2619C30.6063 26.5729 30.6063 28.6292 29.2619 28.6292Z" fill="#EF6C1E"/>
</svg>
