<svg width="45" height="45" viewBox="0 0 45 45" fill="none" xmlns="http://www.w3.org/2000/svg">
<path d="M42 0H14.25C13.4544 0 12.6913 0.316071 12.1287 0.87868C11.5661 1.44129 11.25 2.20435 11.25 3V13.5C11.25 13.6989 11.329 13.8897 11.4697 14.0303C11.6103 14.171 11.8011 14.25 12 14.25C12.1989 14.25 12.3897 14.171 12.5303 14.0303C12.671 13.8897 12.75 13.6989 12.75 13.5V3C12.75 2.60217 12.908 2.22064 13.1893 1.93934C13.4706 1.65804 13.8522 1.5 14.25 1.5H42C42.3978 1.5 42.7794 1.65804 43.0607 1.93934C43.342 2.22064 43.5 2.60217 43.5 3V42C43.5 42.3978 43.342 42.7794 43.0607 43.0607C42.7794 43.342 42.3978 43.5 42 43.5H22.5C22.3011 43.5 22.1103 43.579 21.9697 43.7197C21.829 43.8603 21.75 44.0511 21.75 44.25C21.75 44.4489 21.829 44.6397 21.9697 44.7803C22.1103 44.921 22.3011 45 22.5 45H42C42.7956 45 43.5587 44.6839 44.1213 44.1213C44.6839 43.5587 45 42.7956 45 42V3C45 2.20435 44.6839 1.44129 44.1213 0.87868C43.5587 0.316071 42.7956 0 42 0Z" fill="#EF6C1E"/>
<path d="M42 4.5C42 4.10218 41.842 3.72064 41.5607 3.43934C41.2794 3.15804 40.8978 3 40.5 3H15.75C15.3522 3 14.9706 3.15804 14.6893 3.43934C14.408 3.72064 14.25 4.10218 14.25 4.5V10.5C14.25 10.8978 14.408 11.2794 14.6893 11.5607C14.9706 11.842 15.3522 12 15.75 12H40.5C40.8978 12 41.2794 11.842 41.5607 11.5607C41.842 11.2794 42 10.8978 42 10.5V4.5ZM29.9407 10.5L34.1407 4.5H36.8092L32.6092 10.5H29.9407ZM15.75 4.5H32.3092L28.1092 10.5H15.75V4.5ZM40.5 10.5H34.4408L38.6407 4.5H40.5V10.5ZM24 39.75C24 40.3467 24.2371 40.919 24.659 41.341C25.081 41.7629 25.6533 42 26.25 42H39.75C40.3467 42 40.919 41.7629 41.341 41.341C41.7629 40.919 42 40.3467 42 39.75V36C42 35.4033 41.7629 34.831 41.341 34.409C40.919 33.9871 40.3467 33.75 39.75 33.75H26.25C25.6533 33.75 25.081 33.9871 24.659 34.409C24.2371 34.831 24 35.4033 24 36V39.75ZM25.5 36C25.5 35.8011 25.579 35.6103 25.7197 35.4697C25.8603 35.329 26.0511 35.25 26.25 35.25H39.75C39.9489 35.25 40.1397 35.329 40.2803 35.4697C40.421 35.6103 40.5 35.8011 40.5 36V39.75C40.5 39.9489 40.421 40.1397 40.2803 40.2803C40.1397 40.421 39.9489 40.5 39.75 40.5H26.25C26.0511 40.5 25.8603 40.421 25.7197 40.2803C25.579 40.1397 25.5 39.9489 25.5 39.75V36ZM42 26.25C42 25.6533 41.7629 25.081 41.341 24.659C40.919 24.2371 40.3467 24 39.75 24H36C35.4033 24 34.831 24.2371 34.409 24.659C33.9871 25.081 33.75 25.6533 33.75 26.25V30C33.75 30.5967 33.9871 31.169 34.409 31.591C34.831 32.0129 35.4033 32.25 36 32.25H39.75C40.3467 32.25 40.919 32.0129 41.341 31.591C41.7629 31.169 42 30.5967 42 30V26.25ZM40.5 30C40.5 30.1989 40.421 30.3897 40.2803 30.5303C40.1397 30.671 39.9489 30.75 39.75 30.75H36C35.8011 30.75 35.6103 30.671 35.4697 30.5303C35.329 30.3897 35.25 30.1989 35.25 30V26.25C35.25 26.0511 35.329 25.8603 35.4697 25.7197C35.6103 25.579 35.8011 25.5 36 25.5H39.75C39.9489 25.5 40.1397 25.579 40.2803 25.7197C40.421 25.8603 40.5 26.0511 40.5 26.25V30ZM42 16.5C42 15.9033 41.7629 15.331 41.341 14.909C40.919 14.4871 40.3467 14.25 39.75 14.25H36C35.4033 14.25 34.831 14.4871 34.409 14.909C33.9871 15.331 33.75 15.9033 33.75 16.5V20.25C33.75 20.8467 33.9871 21.419 34.409 21.841C34.831 22.2629 35.4033 22.5 36 22.5H39.75C40.3467 22.5 40.919 22.2629 41.341 21.841C41.7629 21.419 42 20.8467 42 20.25V16.5ZM40.5 20.25C40.5 20.4489 40.421 20.6397 40.2803 20.7803C40.1397 20.921 39.9489 21 39.75 21H36C35.8011 21 35.6103 20.921 35.4697 20.7803C35.329 20.6397 35.25 20.4489 35.25 20.25V16.5C35.25 16.3011 35.329 16.1103 35.4697 15.9697C35.6103 15.829 35.8011 15.75 36 15.75H39.75C39.9489 15.75 40.1397 15.829 40.2803 15.9697C40.421 16.1103 40.5 16.3011 40.5 16.5V20.25ZM26.25 22.5H30C30.5967 22.5 31.169 22.2629 31.591 21.841C32.0129 21.419 32.25 20.8467 32.25 20.25V16.5C32.25 15.9033 32.0129 15.331 31.591 14.909C31.169 14.4871 30.5967 14.25 30 14.25H26.25C25.6533 14.25 25.081 14.4871 24.659 14.909C24.2371 15.331 24 15.9033 24 16.5V20.25C24 20.8467 24.2371 21.419 24.659 21.841C25.081 22.2629 25.6533 22.5 26.25 22.5ZM25.5 16.5C25.5 16.3011 25.579 16.1103 25.7197 15.9697C25.8603 15.829 26.0511 15.75 26.25 15.75H30C30.1989 15.75 30.3897 15.829 30.5303 15.9697C30.671 16.1103 30.75 16.3011 30.75 16.5V20.25C30.75 20.4489 30.671 20.6397 30.5303 20.7803C30.3897 20.921 30.1989 21 30 21H26.25C26.0511 21 25.8603 20.921 25.7197 20.7803C25.579 20.6397 25.5 20.4489 25.5 20.25V16.5ZM24 30C24 30.5967 24.2371 31.169 24.659 31.591C25.081 32.0129 25.6533 32.25 26.25 32.25H30C30.5967 32.25 31.169 32.0129 31.591 31.591C32.0129 31.169 32.25 30.5967 32.25 30V26.25C32.25 25.6533 32.0129 25.081 31.591 24.659C31.169 24.2371 30.5967 24 30 24H26.25C25.6533 24 25.081 24.2371 24.659 24.659C24.2371 25.081 24 25.6533 24 26.25V30ZM25.5 26.25C25.5 26.0511 25.579 25.8603 25.7197 25.7197C25.8603 25.579 26.0511 25.5 26.25 25.5H30C30.1989 25.5 30.3897 25.579 30.5303 25.7197C30.671 25.8603 30.75 26.0511 30.75 26.25V30C30.75 30.1989 30.671 30.3897 30.5303 30.5303C30.3897 30.671 30.1989 30.75 30 30.75H26.25C26.0511 30.75 25.8603 30.671 25.7197 30.5303C25.579 30.3897 25.5 30.1989 25.5 30V26.25ZM10.875 45C14.9145 45 21.75 44.289 21.75 41.625V19.125C21.75 16.461 14.9145 15.75 10.875 15.75C6.8355 15.75 0 16.461 0 19.125V41.625C0 44.289 6.8355 45 10.875 45ZM10.875 17.25C16.626 17.25 20.085 18.495 20.25 19.1145C20.085 19.755 16.626 21 10.875 21C10.2502 21 9.63225 20.985 9.03675 20.9557C8.83784 20.9458 8.64312 21.0153 8.49544 21.1489C8.34775 21.2825 8.25919 21.4693 8.24925 21.6682C8.2393 21.8672 8.30878 22.0619 8.4424 22.2096C8.57602 22.3572 8.76284 22.4458 8.96175 22.4557C9.58125 22.4865 10.2232 22.5015 10.8735 22.5015C13.7415 22.5015 18.009 22.1385 20.2485 20.9767V23.6175C20.2095 23.7675 19.5645 24.4125 17.0985 24.9307C16.9996 24.9482 16.9053 24.9854 16.821 25.0401C16.7368 25.0947 16.6644 25.1657 16.6081 25.2489C16.5518 25.332 16.5128 25.4256 16.4934 25.5241C16.474 25.6226 16.4745 25.724 16.495 25.8223C16.5155 25.9206 16.5555 26.0138 16.6127 26.0964C16.6699 26.1789 16.743 26.2491 16.8279 26.3028C16.9127 26.3566 17.0074 26.3927 17.1065 26.4092C17.2055 26.4256 17.3069 26.422 17.4045 26.3985C18.39 26.2155 19.347 25.9035 20.25 25.47V28.116C20.0805 28.7565 16.6222 30 10.875 30C10.2502 30 9.63225 29.985 9.03675 29.9557C8.83784 29.9458 8.64312 30.0153 8.49544 30.1489C8.34775 30.2825 8.25919 30.4693 8.24925 30.6682C8.2393 30.8672 8.30878 31.0619 8.4424 31.2096C8.57602 31.3572 8.76284 31.4458 8.96175 31.4557C9.58125 31.4865 10.2232 31.5015 10.8735 31.5015C13.7422 31.5015 18.0097 31.1385 20.2485 29.9767V32.6182C20.211 32.763 19.5682 33.4132 17.094 33.9322C16.9063 33.98 16.7444 34.0985 16.6421 34.263C16.5399 34.4274 16.5052 34.625 16.5453 34.8144C16.5854 35.0039 16.6972 35.1705 16.8574 35.2793C17.0175 35.3882 17.2136 35.4309 17.4045 35.3985C18.39 35.2155 19.347 34.9035 20.25 34.47V37.1152C20.0835 37.755 16.6245 39 10.875 39C10.2502 39 9.63225 38.985 9.03675 38.9557C8.83784 38.9458 8.64312 39.0153 8.49544 39.1489C8.34775 39.2825 8.25919 39.4693 8.24925 39.6682C8.2393 39.8672 8.30878 40.0619 8.4424 40.2096C8.57602 40.3572 8.76284 40.4458 8.96175 40.4557C9.58125 40.4865 10.2232 40.5015 10.8735 40.5015C13.7422 40.5015 18.0105 40.1385 20.2485 38.976V41.616C20.085 42.255 16.626 43.5 10.875 43.5C5.124 43.5 1.665 42.255 1.5 41.625V38.9722C2.64783 39.5073 3.86816 39.8704 5.12175 40.05C5.1645 40.056 5.20725 40.0582 5.25 40.0575C5.4375 40.057 5.61803 39.9863 5.756 39.8593C5.89396 39.7324 5.97936 39.5583 5.99536 39.3715C6.01136 39.1847 5.9568 38.9986 5.84244 38.85C5.72807 38.7015 5.56219 38.6011 5.3775 38.5687C2.3535 38.0437 1.5525 37.2937 1.49925 37.1182V34.4752C3.7395 35.637 8.007 36 10.875 36C11.7982 36 12.6997 35.9692 13.5532 35.9077C13.6536 35.9037 13.7521 35.8795 13.843 35.8367C13.9338 35.7939 14.0151 35.7332 14.0821 35.6584C14.149 35.5835 14.2003 35.4959 14.2328 35.4009C14.2652 35.3059 14.2783 35.2053 14.2712 35.1051C14.264 35.0049 14.2368 34.9072 14.1912 34.8177C14.1456 34.7282 14.0825 34.6488 14.0056 34.5842C13.9287 34.5196 13.8396 34.4711 13.7436 34.4415C13.6476 34.412 13.5467 34.402 13.4467 34.4122C12.5908 34.4715 11.733 34.5008 10.875 34.5C5.1345 34.5 1.677 33.2595 1.5 32.6182V29.9722C2.64783 30.5073 3.86816 30.8704 5.12175 31.05C5.1645 31.056 5.20725 31.0582 5.25 31.0575C5.4375 31.057 5.61803 30.9863 5.756 30.8593C5.89396 30.7324 5.97936 30.5583 5.99536 30.3715C6.01136 30.1847 5.9568 29.9986 5.84244 29.85C5.72807 29.7015 5.56219 29.6011 5.3775 29.5687C2.3535 29.0437 1.5525 28.2937 1.49925 28.1182V25.4752C3.7395 26.637 8.007 27 10.875 27C11.7982 27 12.6997 26.9692 13.5532 26.9077C13.6536 26.9037 13.7521 26.8795 13.843 26.8367C13.9338 26.7939 14.0151 26.7332 14.0821 26.6584C14.149 26.5835 14.2003 26.4959 14.2328 26.4009C14.2652 26.3059 14.2783 26.2053 14.2712 26.1051C14.264 26.0049 14.2368 25.9072 14.1912 25.8177C14.1456 25.7282 14.0825 25.6488 14.0056 25.5842C13.9287 25.5196 13.8396 25.4711 13.7436 25.4415C13.6476 25.412 13.5467 25.402 13.4467 25.4122C12.5908 25.4715 11.733 25.5008 10.875 25.5C5.1345 25.5 1.677 24.2595 1.5 23.6182V20.9722C2.64783 21.5073 3.86816 21.8704 5.12175 22.05C5.31778 22.084 5.51929 22.0388 5.68195 21.9242C5.84462 21.8096 5.95511 21.6352 5.98912 21.4391C6.02314 21.2431 5.97789 21.0416 5.86333 20.8789C5.74876 20.7163 5.57428 20.6058 5.37825 20.5717C2.34675 20.0467 1.55325 19.2967 1.5 19.1407V19.1362C1.6725 18.4927 5.13 17.25 10.875 17.25Z" fill="#EF6C1E"/>
</svg>
