<svg width="186" height="36" viewBox="0 0 186 36" fill="none" xmlns="http://www.w3.org/2000/svg">
<path d="M58.6813 13.9859V26.0896H54.6393V24.7944C54.1926 25.2857 53.6567 25.6579 53.0314 25.9109C52.4061 26.164 51.7436 26.2906 51.0439 26.2906C49.4807 26.2906 48.2301 25.8291 47.2922 24.906C46.3692 23.983 45.9076 22.5984 45.9076 20.7524V13.9859H50.1506V20.0601C50.1506 20.9682 50.3218 21.6307 50.6643 22.0476C51.0067 22.4644 51.5054 22.6729 52.1605 22.6729C52.8304 22.6729 53.3738 22.4421 53.7907 21.9806C54.2224 21.5042 54.4383 20.7821 54.4383 19.8144V13.9859H58.6813ZM70.1906 13.7849C71.6942 13.7849 72.9001 14.2316 73.8083 15.1248C74.7313 16.0181 75.1928 17.3654 75.1928 19.1668V26.0896H70.9498V19.8591C70.9498 18.2066 70.2873 17.3803 68.9623 17.3803C68.2328 17.3803 67.6448 17.6185 67.1981 18.0949C66.7664 18.5713 66.5505 19.2859 66.5505 20.2387V26.0896H62.3075V13.9859H66.3495V15.3035C66.8259 14.8122 67.3917 14.44 68.0467 14.1869C68.7018 13.9189 69.4164 13.7849 70.1906 13.7849ZM78.75 13.9859H82.993V26.0896H78.75V13.9859ZM80.8715 12.646C80.0973 12.646 79.472 12.4301 78.9956 11.9984C78.5192 11.5667 78.281 11.0307 78.281 10.3905C78.281 9.75037 78.5192 9.21441 78.9956 8.78267C79.472 8.35093 80.0973 8.13505 80.8715 8.13505C81.6456 8.13505 82.2709 8.34348 82.7473 8.76034C83.2237 9.1623 83.4619 9.68337 83.4619 10.3235C83.4619 10.9935 83.2237 11.5518 82.7473 11.9984C82.2709 12.4301 81.6456 12.646 80.8715 12.646ZM91.043 26.2906C90.0306 26.2906 89.0331 26.1789 88.0505 25.9556C87.068 25.7174 86.2789 25.4122 85.6834 25.04L86.9563 22.1369C87.5071 22.4793 88.1622 22.7548 88.9215 22.9632C89.6807 23.1567 90.4326 23.2535 91.177 23.2535C91.8618 23.2535 92.3456 23.1865 92.6285 23.0525C92.9263 22.9036 93.0751 22.6952 93.0751 22.4272C93.0751 22.1593 92.8965 21.9732 92.5392 21.8689C92.1968 21.7498 91.6459 21.6382 90.8866 21.534C89.9189 21.4149 89.0927 21.2585 88.4078 21.065C87.7379 20.8715 87.1573 20.5142 86.666 19.9931C86.1747 19.472 85.929 18.7425 85.929 17.8046C85.929 17.0304 86.1598 16.3456 86.6213 15.7501C87.0828 15.1397 87.7528 14.6633 88.6312 14.3209C89.5244 13.9636 90.5889 13.7849 91.8246 13.7849C92.7029 13.7849 93.5739 13.8743 94.4374 14.0529C95.3008 14.2316 96.0229 14.4847 96.6035 14.8122L95.3306 17.6929C94.2587 17.0974 93.0975 16.7997 91.8469 16.7997C91.177 16.7997 90.6857 16.8816 90.373 17.0453C90.0604 17.1942 89.9041 17.3952 89.9041 17.6483C89.9041 17.9311 90.0753 18.1321 90.4177 18.2512C90.7601 18.3554 91.3258 18.4671 92.1149 18.5862C93.1124 18.7351 93.9386 18.9063 94.5937 19.0998C95.2487 19.2934 95.8145 19.6507 96.2909 20.1717C96.7822 20.6779 97.0278 21.3925 97.0278 22.3156C97.0278 23.0748 96.7971 23.7597 96.3355 24.3701C95.874 24.9656 95.1892 25.4345 94.281 25.777C93.3878 26.1194 92.3084 26.2906 91.043 26.2906ZM112.121 20.0601C112.121 20.0899 112.099 20.4397 112.054 21.1097H103.256C103.434 21.735 103.777 22.2188 104.283 22.5612C104.804 22.8887 105.451 23.0525 106.226 23.0525C106.806 23.0525 107.305 22.9706 107.722 22.8069C108.154 22.6431 108.585 22.3751 109.017 22.0029L111.25 24.3254C110.074 25.6355 108.355 26.2906 106.092 26.2906C104.677 26.2906 103.434 26.0226 102.362 25.4866C101.29 24.9507 100.457 24.2063 99.8611 23.2535C99.2805 22.3007 98.9902 21.2213 98.9902 20.0154C98.9902 18.8244 99.2731 17.7599 99.8388 16.822C100.419 15.8692 101.216 15.1248 102.228 14.5889C103.241 14.0529 104.38 13.7849 105.645 13.7849C106.851 13.7849 107.945 14.038 108.928 14.5442C109.91 15.0355 110.684 15.7575 111.25 16.7104C111.831 17.6483 112.121 18.7649 112.121 20.0601ZM105.667 16.7997C105.012 16.7997 104.461 16.9858 104.015 17.358C103.583 17.7302 103.308 18.2363 103.189 18.8765H108.146C108.027 18.2363 107.744 17.7302 107.298 17.358C106.866 16.9858 106.322 16.7997 105.667 16.7997ZM114.971 9.51961H119.214V26.0896H114.971V9.51961ZM122.864 9.51961H127.107V26.0896H122.864V9.51961ZM143.13 20.0601C143.13 20.0899 143.107 20.4397 143.063 21.1097H134.264C134.443 21.735 134.785 22.2188 135.291 22.5612C135.812 22.8887 136.46 23.0525 137.234 23.0525C137.815 23.0525 138.314 22.9706 138.73 22.8069C139.162 22.6431 139.594 22.3751 140.026 22.0029L142.259 24.3254C141.083 25.6355 139.363 26.2906 137.1 26.2906C135.686 26.2906 134.443 26.0226 133.371 25.4866C132.299 24.9507 131.465 24.2063 130.87 23.2535C130.289 22.3007 129.999 21.2213 129.999 20.0154C129.999 18.8244 130.282 17.7599 130.847 16.822C131.428 15.8692 132.224 15.1248 133.237 14.5889C134.249 14.0529 135.388 13.7849 136.654 13.7849C137.859 13.7849 138.954 14.038 139.936 14.5442C140.919 15.0355 141.693 15.7575 142.259 16.7104C142.839 17.6483 143.13 18.7649 143.13 20.0601ZM136.676 16.7997C136.021 16.7997 135.47 16.9858 135.023 17.358C134.592 17.7302 134.316 18.2363 134.197 18.8765H139.155C139.036 18.2363 138.753 17.7302 138.306 17.358C137.874 16.9858 137.331 16.7997 136.676 16.7997ZM150.021 15.4375C150.453 14.8866 151.011 14.4772 151.696 14.2092C152.396 13.9264 153.192 13.7849 154.086 13.7849V17.6036C153.698 17.559 153.378 17.5366 153.125 17.5366C152.217 17.5366 151.503 17.7823 150.981 18.2736C150.475 18.7649 150.222 19.5167 150.222 20.529V26.0896H145.979V13.9859H150.021V15.4375ZM163.773 13.9859H168.016V26.0896H163.773V13.9859ZM165.894 12.646C165.12 12.646 164.495 12.4301 164.019 11.9984C163.542 11.5667 163.304 11.0307 163.304 10.3905C163.304 9.75037 163.542 9.21441 164.019 8.78267C164.495 8.35093 165.12 8.13505 165.894 8.13505C166.669 8.13505 167.294 8.34348 167.77 8.76034C168.247 9.1623 168.485 9.68337 168.485 10.3235C168.485 10.9935 168.247 11.5518 167.77 11.9984C167.294 12.4301 166.669 12.646 165.894 12.646ZM177.741 26.2906C176.446 26.2906 175.277 26.0226 174.235 25.4866C173.193 24.9507 172.374 24.2063 171.778 23.2535C171.198 22.3007 170.907 21.2213 170.907 20.0154C170.907 18.8244 171.198 17.7525 171.778 16.7997C172.374 15.8469 173.185 15.1099 174.212 14.5889C175.254 14.0529 176.431 13.7849 177.741 13.7849C179.051 13.7849 180.227 14.0529 181.269 14.5889C182.311 15.1099 183.123 15.8469 183.703 16.7997C184.284 17.7376 184.574 18.8095 184.574 20.0154C184.574 21.2213 184.284 22.3007 183.703 23.2535C183.123 24.2063 182.311 24.9507 181.269 25.4866C180.227 26.0226 179.051 26.2906 177.741 26.2906ZM177.741 22.9185C178.485 22.9185 179.096 22.6654 179.572 22.1593C180.048 21.6382 180.287 20.9236 180.287 20.0154C180.287 19.1222 180.048 18.4224 179.572 17.9163C179.096 17.4101 178.485 17.157 177.741 17.157C176.996 17.157 176.386 17.4101 175.91 17.9163C175.433 18.4224 175.195 19.1222 175.195 20.0154C175.195 20.9236 175.433 21.6382 175.91 22.1593C176.386 22.6654 176.996 22.9185 177.741 22.9185Z" fill="#181818"/>
<path d="M158.342 26.2906C157.627 26.2906 157.024 26.0524 156.533 25.576C156.042 25.0996 155.796 24.4966 155.796 23.7671C155.796 23.0227 156.034 22.4198 156.511 21.9583C157.002 21.4967 157.612 21.266 158.342 21.266C159.086 21.266 159.697 21.4967 160.173 21.9583C160.649 22.4198 160.888 23.0227 160.888 23.7671C160.888 24.4966 160.642 25.0996 160.151 25.576C159.674 26.0524 159.071 26.2906 158.342 26.2906Z" fill="#EF6C1E"/>
<path d="M14.723 35.3238C10.4766 35.3238 6.96123 34.0523 4.17674 31.5091C1.39225 28.9659 0 25.6961 0 21.6996V0H6.05627V21.3528C6.05627 23.896 6.85681 25.9603 8.45789 27.5457C10.059 29.098 12.1473 29.8742 14.723 29.8742C17.2638 29.8742 19.3348 29.098 20.9359 27.5457C22.537 25.9603 23.3375 23.896 23.3375 21.3528V0H29.3416V21.6996C29.3416 25.6961 27.9493 28.9659 25.1648 31.5091C22.4152 34.0523 18.9345 35.3238 14.723 35.3238Z" fill="#181818"/>
<g filter="url(#filter0_i_826_280)">
<path d="M20.9649 0.854614L7.04628 17.3051L12.7403 17.0423L4.46289 34.7541L22.1248 14.6772L15.3764 15.1502L20.9649 0.854614Z" fill="white"/>
</g>
<path d="M20.9649 0.854614L7.04628 17.3051L12.7403 17.0423L4.46289 34.7541L22.1248 14.6772L15.3764 15.1502L20.9649 0.854614Z" stroke="url(#paint0_linear_826_280)" stroke-width="0.759652" stroke-linejoin="round"/>
<defs>
<filter id="filter0_i_826_280" x="4.08301" y="0.474731" width="19.3714" height="34.7541" filterUnits="userSpaceOnUse" color-interpolation-filters="sRGB">
<feFlood flood-opacity="0" result="BackgroundImageFix"/>
<feBlend mode="normal" in="SourceGraphic" in2="BackgroundImageFix" result="shape"/>
<feColorMatrix in="SourceAlpha" type="matrix" values="0 0 0 0 0 0 0 0 0 0 0 0 0 0 0 0 0 0 127 0" result="hardAlpha"/>
<feOffset dx="1.42435" dy="0.0949566"/>
<feGaussianBlur stdDeviation="0.474783"/>
<feComposite in2="hardAlpha" operator="arithmetic" k2="-1" k3="1"/>
<feColorMatrix type="matrix" values="0 0 0 0 0 0 0 0 0 0 0 0 0 0 0 0 0 0 0.45 0"/>
<feBlend mode="normal" in2="shape" result="effect1_innerShadow_826_280"/>
</filter>
<linearGradient id="paint0_linear_826_280" x1="0.456007" y1="33.8081" x2="30.6979" y2="-8.80029" gradientUnits="userSpaceOnUse">
<stop stop-color="#EF6C1E"/>
<stop offset="1" stop-color="#FFD261"/>
</linearGradient>
</defs>
</svg>
