<svg width="161" height="193" viewBox="0 0 161 193" fill="none" xmlns="http://www.w3.org/2000/svg">
<path d="M80.6645 192.526C57.5359 192.526 38.3884 185.6 23.2221 171.748C8.05581 157.896 0.472656 140.087 0.472656 118.319V0.127747H33.4594V116.43C33.4594 130.282 37.8197 141.526 46.5403 150.161C55.2609 158.616 66.6357 162.844 80.6645 162.844C94.5037 162.844 105.784 158.616 114.504 150.161C123.225 141.526 127.585 130.282 127.585 116.43V0.127747H160.288V118.319C160.288 140.087 152.704 157.896 137.538 171.748C122.561 185.6 103.604 192.526 80.6645 192.526Z" fill="#1E1E1E"/>
<g filter="url(#filter0_i_801_602)">
<path d="M114.663 4.78255L38.8522 94.3833L69.8657 92.952L24.7812 189.423L120.981 80.0701L84.2238 82.6465L114.663 4.78255Z" fill="white"/>
</g>
<path d="M114.663 4.78255L38.8522 94.3833L69.8657 92.952L24.7812 189.423L120.981 80.0701L84.2238 82.6465L114.663 4.78255Z" stroke="url(#paint0_linear_801_602)" stroke-width="3.49915" stroke-linejoin="round"/>
<defs>
<filter id="filter0_i_801_602" x="23.0312" y="3.03288" width="104.073" height="188.577" filterUnits="userSpaceOnUse" color-interpolation-filters="sRGB">
<feFlood flood-opacity="0" result="BackgroundImageFix"/>
<feBlend mode="normal" in="SourceGraphic" in2="BackgroundImageFix" result="shape"/>
<feColorMatrix in="SourceAlpha" type="matrix" values="0 0 0 0 0 0 0 0 0 0 0 0 0 0 0 0 0 0 127 0" result="hardAlpha"/>
<feOffset dx="6.56091" dy="0.437394"/>
<feGaussianBlur stdDeviation="2.18697"/>
<feComposite in2="hardAlpha" operator="arithmetic" k2="-1" k3="1"/>
<feColorMatrix type="matrix" values="0 0 0 0 0 0 0 0 0 0 0 0 0 0 0 0 0 0 0.45 0"/>
<feBlend mode="normal" in2="shape" result="effect1_innerShadow_801_602"/>
</filter>
<linearGradient id="paint0_linear_801_602" x1="2.95694" y1="184.27" x2="167.676" y2="-47.8049" gradientUnits="userSpaceOnUse">
<stop stop-color="#EF6C1E"/>
<stop offset="1" stop-color="#FFD261"/>
</linearGradient>
</defs>
</svg>
