<svg width="141" height="35" viewBox="0 0 141 35" fill="none" xmlns="http://www.w3.org/2000/svg">
<path d="M27.4989 29.1037C27.3716 28.9304 26.2695 28.1631 25.7388 27.578C25.208 26.9929 24.5781 26.1974 23.2316 25.6777C21.6112 25.1117 18.7299 24.5682 18.7299 24.5682L19.504 21.6418H19.983C22.2794 21.6418 24.3461 20.6022 24.3461 18.5634C24.3461 17.9085 24.2886 17.535 24.2886 17.535C24.2886 17.535 27.0788 15.4311 27.0788 11.8643C27.0788 8.88511 23.705 6.84974 23.705 5.12938C23.705 4.7007 24.0702 4.27878 24.7993 4.2079L26.139 4.038C26.4579 3.99753 26.4782 3.54294 26.1639 3.47544L24.8826 3.19642C24.7215 3.16155 24.5694 3.09178 24.4364 2.99277L24.3057 2.89489C24.0059 2.66086 23.8031 2.43021 23.003 2.43021C22.1973 2.43021 21.4412 2.93764 21.4412 4.56343C21.4412 7.2582 24.7361 8.93447 24.7361 11.4155C24.7361 12.3662 24.0093 13.4025 22.4915 13.4025C20.6322 13.4025 19.1369 11.1027 15.1569 11.1027C13.8227 11.1027 12.5585 11.3616 11.5251 11.8971C9.59365 10.9621 3.33507 12.5451 3.33507 17.949C3.33507 18.839 3.64608 19.6187 4.37515 19.6187C4.63884 19.6187 4.93858 19.4792 5.04337 19.4263C5.17295 19.361 5.55946 19.1664 5.55946 19.1664C5.55946 19.1664 6.03949 19.8189 6.8745 19.8189C8.5997 19.8189 9.47407 18.4114 9.47407 18.4114L10.6776 19.3486L8.30432 20.9947C8.10599 21.132 7.95612 21.3278 7.87499 21.5562L5.81624 27.1807C5.72947 27.4203 5.61904 27.4709 5.43761 27.5362C5.19084 27.6228 4.05271 27.9277 4.34794 28.8807C3.56366 28.6119 3.03178 29.8889 2.83459 30.5122C2.63627 31.1355 2.55739 32.0479 2.63964 32.2786C2.63964 32.2786 2.81318 32.6634 3.13884 32.5498C3.18166 32.5351 3.21772 32.5081 3.25152 32.4777C3.70001 32.0851 3.81381 31.9635 4.63192 31.2288C5.91654 30.0733 7.17969 29.5997 8.13986 27.3889C9.00867 25.3873 10.0555 23.1315 10.0555 23.1315C10.2099 22.8266 10.4916 22.6072 10.824 22.5296L16.4177 21.239L16.1507 25.4717C16.1203 25.9487 16.4515 26.3729 16.9215 26.4596L22.2795 27.3878C22.6514 28.4736 23.19 28.7053 23.794 28.3149C23.7343 28.6367 23.7478 28.9461 24.3698 29.2893C24.9918 29.6324 25.6522 29.7281 26.1818 29.772C26.4917 29.7978 26.7441 29.7955 26.9446 29.7696C27.1858 29.7381 27.4416 29.6357 27.5385 29.4129C27.5757 29.3218 27.5812 29.215 27.4989 29.1037ZM38.9933 14.2415C38.9574 15.3291 38.9063 16.294 38.8345 17.1341C38.7645 17.9762 38.6756 18.7126 38.5716 19.3433C38.4846 19.974 38.3788 20.5178 38.2558 20.9746C38.1329 21.4127 38.0006 21.7903 37.8606 22.1056H43.8155V9.06907H39.1787L38.9933 14.2415ZM33.4356 28.3932V22.1055H34.6742C35.0959 21.4031 35.3947 20.3949 35.5706 19.0806C35.7635 17.7476 35.9034 15.9934 35.9923 13.8203L36.2552 6.59749H47.0039V22.1074H48.7172V28.395H45.7408V24.581H36.414V28.395H33.4355L33.4356 28.3932ZM55.3698 13.559C54.6134 13.559 54.0424 13.8309 53.6566 14.3747C53.2708 14.9185 53.059 15.7172 53.0231 16.769H57.399V16.5065C57.399 16.0854 57.3631 15.7002 57.2931 15.349C57.2402 14.9809 57.1343 14.6655 56.9773 14.4012C56.8185 14.1387 56.6086 13.9367 56.3438 13.7969C56.081 13.6383 55.7575 13.559 55.3698 13.559ZM53.0248 19.0836C53.0778 20.1882 53.3501 21.0133 53.8418 21.5572C54.3335 22.101 55.1598 22.3729 56.3191 22.3729C57.0925 22.3729 57.8471 22.2502 58.5865 22.0047C59.3429 21.7593 59.965 21.4704 60.4586 21.1362V23.687C60.0009 24.0023 59.4034 24.2742 58.6658 24.5027C57.9284 24.7312 57.0585 24.8445 56.0562 24.8445C54.0347 24.8445 52.4802 24.2837 51.391 23.1603C50.3187 22.0387 49.7835 20.3185 49.7835 18.0036C49.7835 17.0048 49.897 16.0834 50.1259 15.2412C50.3546 14.3991 50.6969 13.6721 51.1546 13.0585C51.6292 12.4278 52.2173 11.9444 52.9208 11.6121C53.6413 11.2609 54.4753 11.0853 55.4245 11.0853C56.215 11.0853 56.9279 11.1986 57.5595 11.4271C58.193 11.6556 58.7282 12.0237 59.1669 12.5316C59.6246 13.0395 59.9744 13.6985 60.2222 14.5047C60.468 15.294 60.5909 16.2664 60.5909 17.424V19.0818H53.0248L53.0248 19.0836ZM61.7445 21.8706C61.7975 21.9234 61.858 21.9668 61.9298 22.0027C61.9998 22.0386 62.0698 22.0651 62.1416 22.082C62.2286 22.099 62.3345 22.1084 62.4574 22.1084C62.7202 22.1084 62.9321 22.0461 63.0909 21.9234C63.2497 21.8007 63.3727 21.5986 63.4596 21.3192C63.5467 21.0378 63.609 20.6622 63.645 20.1882C63.6979 19.7142 63.7415 19.1271 63.7774 18.4265L64.0402 11.3498H73.0285V24.5819H69.8913V13.8212H66.6746L66.5158 18.5567C66.4798 19.6614 66.4023 20.6092 66.2794 21.3985C66.1565 22.1877 65.9636 22.8373 65.6989 23.3452C65.4341 23.8532 65.0842 24.2307 64.6437 24.4762C64.2049 24.7217 63.6508 24.8444 62.9833 24.8444C62.6145 24.8444 62.3158 24.801 62.0869 24.7123C61.964 24.6764 61.8505 24.6329 61.7447 24.5801L61.7445 21.8706ZM78.6049 11.3498V19.5557L83.4025 11.3498H86.196V24.58H83.1647V16.4005L78.3672 24.58H75.5739V11.3498H78.6049ZM94.2632 11.3498C97.1995 11.3498 98.6956 12.4671 98.6956 14.7236C98.6956 16.1545 97.9004 17.2695 96.3646 17.7282C98.1503 17.9881 99.1835 19.0475 99.1835 20.748C99.1835 23.5909 96.9003 24.5819 94.4541 24.5819H88.7432V11.3496L94.2632 11.3498ZM91.8027 13.672V16.6734H93.8121C94.8333 16.6734 95.6734 16.2387 95.6734 15.2056C95.6734 14.1978 95.0958 13.672 93.869 13.672L91.8027 13.672ZM91.7998 22.2876H93.9131C95.3076 22.2876 96.0227 21.7648 96.0227 20.4635C96.0227 19.2657 94.9866 18.9654 93.8914 18.9654H91.7998V22.2876ZM106.253 13.56C105.497 13.56 104.926 13.8319 104.54 14.3757C104.154 14.9194 103.942 15.7182 103.906 16.7699H108.283V16.5075C108.283 16.0864 108.247 15.7011 108.176 15.35C108.123 14.9818 108.018 14.6665 107.861 14.4022C107.702 14.1397 107.492 13.9377 107.227 13.7979C106.964 13.6393 106.639 13.56 106.253 13.56ZM103.906 19.0846C103.959 20.1892 104.231 21.0144 104.723 21.5582C105.215 22.102 106.041 22.3739 107.201 22.3739C107.974 22.3739 108.728 22.2511 109.468 22.0057C110.224 21.7602 110.847 21.4714 111.34 21.1371V23.6881C110.883 24.0035 110.285 24.2753 109.547 24.5038C108.81 24.7322 107.94 24.8456 106.938 24.8456C104.916 24.8456 103.362 24.2848 102.272 23.1614C101.2 22.0398 100.665 20.3196 100.665 18.0049C100.665 17.0061 100.778 16.0846 101.007 15.2425C101.236 14.4004 101.579 13.6734 102.036 13.0598C102.511 12.4291 103.099 11.9458 103.802 11.6135C104.522 11.2622 105.357 11.0867 106.306 11.0867C107.097 11.0867 107.81 11.1999 108.441 11.4284C109.075 11.6569 109.609 12.0251 110.049 12.5329C110.506 13.0409 110.856 13.6998 111.103 14.5061C111.349 15.2953 111.472 16.2677 111.472 17.4251V19.0829H103.906L103.906 19.0846ZM130.347 11.3496V19.5555L135.145 11.3496H137.94V24.5799H134.909V16.4004L130.111 24.5799H127.315V11.3496H130.347ZM119.262 22.3697C120.175 22.3697 120.852 22.0185 121.291 21.3181C121.749 20.6156 121.975 19.4941 121.975 17.9515C121.975 16.409 121.764 15.2948 121.342 14.6114C120.92 13.9089 120.28 13.5596 119.417 13.5596C118.537 13.5596 117.88 13.8919 117.441 14.5585C117.002 15.2249 116.773 16.2937 116.756 17.7682V17.9778C116.756 19.5204 116.959 20.6439 117.363 21.3444C117.787 22.0279 118.418 22.3697 119.262 22.3697ZM116.679 13.0574C117.083 12.4079 117.584 11.917 118.182 11.5847C118.797 11.2523 119.474 11.0843 120.211 11.0843C120.948 11.0843 121.625 11.2335 122.24 11.5318C122.854 11.8301 123.383 12.2776 123.821 12.8743C124.26 13.452 124.604 14.1715 124.85 15.0306C125.096 15.8727 125.218 16.8451 125.218 17.9496C125.218 19.0541 125.086 20.036 124.823 20.8952C124.577 21.7543 124.226 22.4831 123.768 23.0779C123.329 23.6556 122.785 24.0956 122.134 24.3939C121.5 24.6923 120.807 24.8414 120.052 24.8414C118.664 24.8414 117.565 24.2372 116.758 23.0269V28.3931H113.621V11.3467H116.52L116.679 13.0574Z" fill="black"/>
<path d="M12.8241 12.7096L6.2793 15.9838L6.74918 17.7345L11.6532 15.266L10.3031 17.2676L11.8492 18.4681L15.2704 16.3867C14.8737 16.9537 14.0331 18.2656 15.1847 19.34C16.9628 20.9984 20.6172 18.1406 22.4078 16.6454L21.5153 15.4168C19.6255 16.9211 17.0878 18.3962 16.5943 17.9561C16.1041 17.5196 17.5183 15.9332 18.4299 14.9104L18.4445 14.8947L16.9053 13.3623L12.9365 15.8949L14.1907 14.0857L12.8241 12.7096Z" fill="#FFE033"/>
</svg>
