<svg width="190" height="35" viewBox="0 0 190 35" fill="none" xmlns="http://www.w3.org/2000/svg">
<path d="M89.4024 29.6285H93.1539L98.3975 10.1462V29.6285H102.618V3.87943H96.8201L91.5765 22.7649L86.3329 3.87943H80.4072V29.6285H84.0309V10.1462L89.4024 29.6285ZM120.267 16.8819C120.267 12.3203 118.008 10.6151 113.318 10.6151C110.377 10.6151 108.075 11.5104 106.711 12.3203V15.944C107.862 15.0487 110.462 14.1108 112.764 14.1108C114.938 14.1108 115.834 14.9208 115.834 16.8392V17.8624H115.151C108.416 17.8624 105.346 20.1218 105.346 23.916C105.346 27.7101 107.606 29.8417 111.059 29.8417C113.659 29.8417 114.81 29.0317 115.62 28.1364H115.834C115.834 28.6054 116.047 29.2875 116.175 29.6285H120.523C120.395 28.1364 120.31 26.5591 120.31 25.067C120.267 25.067 120.267 16.8819 120.267 16.8819ZM115.834 25.1949C115.279 26.0049 114.256 26.687 112.636 26.687C110.803 26.687 109.908 25.5359 109.908 23.9586C109.908 21.7844 111.4 21.0171 115.279 21.0171H115.961V25.2375H115.834V25.1949ZM127.898 10.9562H123.805V35H128.239V27.497C129.39 29.2022 130.967 30.0122 132.929 30.0122C137.277 30.0122 140.218 26.6017 140.218 20.335C140.218 14.0682 137.362 10.6577 133.142 10.6577C131.095 10.6577 129.39 11.553 128.111 13.3861C128.154 13.3435 127.898 10.9562 127.898 10.9562ZM131.692 26.5591C129.433 26.5591 128.154 24.6407 128.154 20.4202C128.154 16.0719 129.39 14.1535 131.905 14.1535C134.293 14.1535 135.529 16.0719 135.529 20.2923C135.529 24.6407 134.293 26.5591 131.692 26.5591ZM153.988 29.6285H159.019L151.942 19.6102L158.209 10.9562H153.775L147.508 19.6102V10.9562H143.075V29.6285H147.508V20.5055L153.988 29.6285ZM173.812 28.3922V24.7686C172.447 25.6638 170.188 26.4738 168.014 26.4738C164.816 26.4738 163.58 24.9817 163.324 21.7844H173.897V19.3971C173.897 12.9172 171.041 10.5299 166.607 10.5299C161.235 10.5299 158.635 14.6224 158.635 20.335C158.635 26.8149 161.832 30.0122 167.417 30.0122C170.529 29.9695 172.575 29.2875 173.812 28.3922ZM166.65 14.1535C168.824 14.1535 169.506 15.9866 169.506 18.246V18.5871H163.324C163.452 15.6456 164.603 14.1535 166.65 14.1535ZM189.756 14.4945V10.9562H174.963V14.4945H180.206V29.6285H184.64V14.4945H189.756Z" fill="black"/>
<path d="M54.1045 34.19C63.5686 34.19 71.1995 26.5591 71.1995 17.095C71.1995 7.63093 63.5686 0 54.1045 0C44.6404 0 37.0095 7.63093 37.0095 17.095C36.9242 26.5591 44.6831 34.19 54.1045 34.19Z" fill="#FED42B"/>
<path d="M17.5696 34.19C27.0109 34.19 34.6646 26.5363 34.6646 17.095C34.6646 7.65369 27.0109 0 17.5696 0C8.1283 0 0.474609 7.65369 0.474609 17.095C0.474609 26.5363 8.1283 34.19 17.5696 34.19Z" fill="#FC3F1D"/>
<path d="M20.0417 9.59196H18.3364C15.3949 9.59196 13.9028 11.084 13.9028 13.3435C13.9028 15.8587 14.926 17.095 17.1001 18.5871L18.8054 19.8234L13.9028 27.4543H9.89551L14.5849 20.5055C11.8565 18.5871 10.3644 16.754 10.3644 13.5566C10.3644 9.54933 13.0928 6.82095 18.3364 6.82095H23.58V27.3264H20.1696V9.54933H20.0417V9.59196Z" fill="white"/>
<mask id="mask0_813_645" style="mask-type:luminance" maskUnits="userSpaceOnUse" x="37" y="0" width="35" height="35">
<path d="M54.1045 34.19C63.5686 34.19 71.1995 26.5591 71.1995 17.095C71.1995 7.63093 63.5686 0 54.1045 0C44.6404 0 37.0095 7.63093 37.0095 17.095C36.9242 26.5591 44.6831 34.19 54.1045 34.19Z" fill="white"/>
</mask>
<g mask="url(#mask0_813_645)">
<path d="M45.7059 9.3788L30.6572 29.0743L34.6645 33.6358L45.8338 18.8429L44.6828 26.9427L50.9495 29.1169L58.5805 16.9245C58.2394 19.1839 57.6852 24.4275 62.673 26.0475C70.5171 28.4348 77.3807 14.324 80.5354 7.16199L75.9739 4.77466C72.4355 12.1924 66.9788 20.3776 64.8046 19.8234C62.6304 19.2692 64.5914 12.3203 65.8277 7.84408V7.71619L58.8789 5.32886L50.5659 18.8855L51.7169 11.4677L45.7059 9.3788Z" fill="black"/>
</g>
</svg>
