<svg width="212" height="25" viewBox="0 0 212 25" fill="none" xmlns="http://www.w3.org/2000/svg">
<path fill-rule="evenodd" clip-rule="evenodd" d="M6.4541 24.5468L0 0.433929H4.23631L9.1926 18.9541L14.5089 0.433929H18.4559L23.7915 19.0505L28.7735 0.440358L33.0033 0.433929L26.5492 24.5404L21.638 24.534L16.4824 6.52804L11.3204 24.5404L6.4541 24.5468Z" fill="#481172"/>
<path d="M39.9593 0.446808H35.9287V24.5275H39.9593V0.446808Z" fill="#481172"/>
<path fill-rule="evenodd" clip-rule="evenodd" d="M48.573 20.7477H58.3892V24.5275H44.626V0.446808H48.573V20.7477Z" fill="#481172"/>
<path fill-rule="evenodd" clip-rule="evenodd" d="M70.7827 20.7798C73.0647 20.7798 74.9225 20.0019 76.3175 18.4463C77.7639 16.8906 78.4839 14.8914 78.4839 12.5321C78.4839 10.1729 77.7639 8.1737 76.3175 6.61803C74.8968 5.06236 73.039 4.28452 70.7827 4.28452H65.28V20.7862H70.7827V20.7798ZM70.7827 0.446777C74.0933 0.446777 76.8446 1.64246 79.011 3.94382C81.2095 6.25161 82.3216 9.11224 82.3216 12.5C82.3216 15.8878 81.2095 18.7227 79.011 21.0562C76.8446 23.364 74.0933 24.5275 70.7827 24.5275H61.3008V0.446777H70.7827Z" fill="#481172"/>
<path fill-rule="evenodd" clip-rule="evenodd" d="M96.3613 20.8441C98.1933 20.8441 99.6397 19.3398 99.6397 17.4563C99.6397 15.5728 98.1933 14.0943 96.3613 14.0943H89.9972V20.8505H96.3613V20.8441ZM89.9972 4.16884V10.5072H95.6091C97.3577 10.5072 98.6948 9.1187 98.6948 7.33804C98.6948 5.55738 97.3577 4.16884 95.6091 4.16884H89.9972ZM103.593 17.6492C103.593 19.6227 102.899 21.2619 101.478 22.5669C100.064 23.8719 98.3926 24.5404 96.3355 24.5404H86.0244V0.446808H95.5834C97.5569 0.446808 99.2283 1.11536 100.585 2.36247C101.973 3.64172 102.642 5.2231 102.642 7.11305C102.642 9.22799 101.806 10.8351 100.193 12.0308C102.308 13.1429 103.587 15.1421 103.587 17.6427L103.593 17.6492Z" fill="#481172"/>
<path fill-rule="evenodd" clip-rule="evenodd" d="M111.289 20.7605H121.96V24.5404H107.342V0.446777H121.793V4.22667H111.289V10.4815H120.931V14.2292H111.289V20.7605Z" fill="#481172"/>
<path fill-rule="evenodd" clip-rule="evenodd" d="M129.469 4.16881V12.23H135.138C137.253 12.23 138.918 10.4493 138.918 8.19941C138.918 5.94948 137.221 4.16881 135.138 4.16881H129.469ZM139.253 24.5404L134.136 15.7592H129.469V24.5404H125.521V0.446777H135.164C137.33 0.446777 139.169 1.1989 140.641 2.72243C142.139 4.19453 142.923 6.02662 142.923 8.19941C142.923 11.2593 141.007 14.0621 138.14 15.1742L143.617 24.5404H139.253Z" fill="#481172"/>
<path fill-rule="evenodd" clip-rule="evenodd" d="M150.591 4.16239V12.2236H156.261C158.376 12.2236 160.041 10.4429 160.041 8.19299C160.041 5.94306 158.344 4.16239 156.261 4.16239H150.591ZM160.349 24.5404L155.264 15.7528H150.597V24.5404H146.65V0.433929H156.299C158.466 0.433929 160.304 1.18605 161.776 2.71601C163.274 4.18811 164.058 6.02663 164.058 8.19299C164.058 11.2529 162.143 14.0621 159.276 15.1742L164.753 24.5468H160.362L160.349 24.5404Z" fill="#481172"/>
<path d="M171.58 0.440369H167.633V24.5468H171.58V0.440369Z" fill="#481172"/>
<path fill-rule="evenodd" clip-rule="evenodd" d="M180.2 20.7605H190.871V24.5404H176.253V0.446777H190.704V4.22667H180.2V10.4815H189.843V14.2292H180.2V20.7605Z" fill="#481172"/>
<path fill-rule="evenodd" clip-rule="evenodd" d="M193.623 19.057L197.043 17.0577C198.014 19.777 199.987 21.1141 203.021 21.1141C206.056 21.1141 207.496 19.8348 207.496 17.9449C207.496 16.942 207.078 16.2221 206.3 15.7206C205.522 15.1935 204.076 14.6085 202.019 13.9978C199.711 13.3036 198.573 12.86 196.959 11.8058C195.404 10.6936 194.626 9.11226 194.626 6.94589C194.626 4.77953 195.378 3.14029 196.908 1.89318C198.412 0.613932 200.244 0.00323486 202.385 0.00323486C206.248 0.00323486 209.225 2.00246 210.78 5.30665L207.444 7.22231C206.441 4.99809 204.744 3.86027 202.385 3.86027C200.026 3.86027 198.605 5.02381 198.605 6.86232C198.605 8.70084 199.775 9.47225 203.471 10.6101C204.391 10.9186 205.053 11.1372 205.471 11.3043C205.914 11.4458 206.499 11.69 207.251 11.9986C208.029 12.3072 208.64 12.6672 209 12.9693C210.279 13.9721 211.475 15.5664 211.475 17.9127C211.475 20.0791 210.697 21.8276 209.109 23.1069C207.553 24.3861 205.496 24.9968 202.938 24.9968C198.271 24.9711 194.877 22.7469 193.623 19.0505V19.057Z" fill="#481172"/>
</svg>
