<svg width="151" height="35" viewBox="0 0 151 35" fill="none" xmlns="http://www.w3.org/2000/svg">
<path d="M37.8652 26.0771V2.90521H51.5608V5.81035H40.7012V12.9348H50.4541V15.84H40.7012V23.1028H52.3216V26.008H37.8652V26.0771Z" fill="#E43225"/>
<path d="M66.7087 26.0771L62.0052 19.921L57.3017 26.0771H53.9816L60.4143 17.8459L53.6357 9.33801H57.3709L62.0052 15.7016L66.7087 9.33801H70.3747L63.942 17.8459L70.0289 26.0771H66.7087Z" fill="#E43225"/>
<path d="M74.5947 23.587V35H71.7588V17.9151C71.7588 13.5574 75.0789 8.92297 80.2666 8.92297C85.5235 8.92297 89.4661 12.2431 89.4661 17.7075C89.4661 23.0336 85.4543 26.6996 80.8892 26.6996C78.6757 26.6996 75.7014 25.7313 74.5947 23.587ZM86.4919 17.7075C86.4919 13.9724 84.0709 11.7589 79.7824 11.9664C77.7074 12.0356 74.5256 13.5574 74.8022 18.8834C74.8714 20.6127 76.6698 23.8637 80.6125 23.8637C84.0018 23.8637 86.4919 21.9269 86.4919 17.7075Z" fill="#E43225"/>
<path d="M91.8867 26.0771V9.33801H94.7227V11.1364C96.1061 9.54551 98.2503 8.99216 100.533 8.99216V12.0356C100.187 11.9665 96.7977 11.5514 94.7227 15.9783V26.1463H91.8867V26.0771Z" fill="#E43225"/>
<path d="M101.294 17.7075C101.294 12.8657 104.752 8.92297 109.525 8.92297C115.474 8.92297 117.687 12.8657 117.687 17.9151V19.2985H104.407C104.614 22.4803 107.45 24.1403 110.078 24.0712C112.015 24.002 113.329 23.4487 114.713 22.0653L116.58 24.002C114.851 25.6621 112.638 26.7688 109.94 26.7688C104.891 26.6996 101.294 22.9645 101.294 17.7075ZM109.318 11.7589C106.62 11.7589 104.545 14.1107 104.407 16.67H114.713C114.713 14.1799 112.914 11.7589 109.318 11.7589Z" fill="#E43225"/>
<path d="M119.14 23.7254L121.215 21.8578C121.146 21.8578 122.252 22.9645 122.391 23.0337C122.875 23.4487 123.359 23.7254 123.982 23.8637C125.78 24.3479 129.031 24.2095 129.308 21.7194C129.446 20.336 128.408 19.5752 127.232 19.091C125.711 18.5376 124.051 18.3301 122.529 17.6384C120.8 16.8775 119.693 15.5633 119.693 13.6266C119.693 8.57715 126.887 7.74711 130.138 10.0989C130.276 10.2372 131.867 11.6898 131.798 11.6898L129.723 13.3499C128.685 12.1048 127.717 11.4823 125.503 11.4823C124.397 11.4823 122.875 11.9665 122.598 13.1424C122.183 14.8024 124.051 15.425 125.296 15.7708C126.956 16.1858 128.754 16.4625 130.207 17.3617C132.213 18.6068 132.697 21.3044 131.936 23.3795C131.106 25.6621 128.616 26.5613 126.402 26.6305C123.774 26.7688 121.491 25.9388 119.624 24.0712C119.486 24.0712 119.14 23.7254 119.14 23.7254Z" fill="#E43225"/>
<path d="M133.734 23.7254L135.809 21.8578C135.74 21.8578 136.847 22.9645 136.985 23.0337C137.47 23.4487 137.954 23.7254 138.576 23.8637C140.375 24.3479 143.626 24.2095 143.902 21.7194C144.041 20.336 143.003 19.5752 141.827 19.091C140.305 18.5376 138.645 18.3301 137.124 17.6384C135.394 16.8775 134.288 15.5633 134.288 13.6266C134.288 8.57715 141.481 7.74711 144.732 10.0989C144.871 10.2372 146.462 11.6898 146.392 11.6898L144.317 13.3499C143.28 12.1048 142.311 11.4823 140.098 11.4823C138.991 11.4823 137.47 11.9665 137.193 13.1424C136.778 14.8024 138.645 15.425 139.89 15.7708C141.551 16.1858 143.349 16.4625 144.801 17.3617C146.807 18.6068 147.292 21.3044 146.531 23.3795C145.701 25.6621 143.211 26.5613 140.997 26.6305C138.369 26.7688 136.086 25.9388 134.219 24.0712C134.08 24.0712 133.734 23.7254 133.734 23.7254Z" fill="#E43225"/>
<path d="M147.223 9.33797V7.53954H146.601V7.1937H148.261V7.53954H147.638V9.33797H147.223Z" fill="#E43225"/>
<path d="M150.336 9.33797V7.67788L149.713 9.33797H149.575L148.952 7.67788V9.33797H148.606V7.1937H149.16L149.713 8.64627L150.267 7.1937H150.82V9.33797H150.336Z" fill="#E43225"/>
<path d="M18.6346 26.0771L16.5595 20.5435H5.35405L3.27897 26.0771H0.304688L9.2967 2.90515H12.5477L21.4705 26.0771H18.6346ZM10.8184 6.22531L6.5991 17.7075H15.3836L10.8184 6.22531Z" fill="#F7971D"/>
<path d="M23.3379 26.0771V2.90515H26.243V26.0771H23.3379Z" fill="#F7971D"/>
<path d="M30.6016 26.077V9.68378H33.5067V26.077H30.6016Z" fill="#F7971D"/>
<path d="M36.2723 4.35769V4.08102C34.0589 4.01185 32.2605 2.21344 32.1913 0H31.7763C31.7071 2.21344 29.9087 4.01185 27.6953 4.08102V4.35769C29.9087 4.42686 31.7071 6.22529 31.7763 8.43872H32.1913C32.2605 6.22529 34.0589 4.42686 36.2723 4.35769Z" fill="#F7971D"/>
</svg>
