<svg width="72" height="35" viewBox="0 0 72 35" fill="none" xmlns="http://www.w3.org/2000/svg">
<g clip-path="url(#clip0_813_726)">
<path d="M31.0326 8.8309H30.7087C25.7827 8.8309 21.7969 12.8171 21.7969 17.7428V25.9255C21.7969 30.8515 25.7831 34.8374 30.7087 34.8374H31.033C35.959 34.8374 39.9448 30.8512 39.9448 25.9255V17.7431C39.9448 12.8171 35.9586 8.8309 31.0326 8.8309ZM32.734 26.493C32.734 27.53 31.9077 28.3564 30.8707 28.3564C29.8336 28.3564 29.0073 27.53 29.0073 26.493V17.176C29.0073 16.1389 29.8336 15.3126 30.8707 15.3126C31.9077 15.3126 32.734 16.1389 32.734 17.176V26.493Z" fill="#EF3A3A"/>
<path d="M16.6121 0C14.6027 0 12.9664 1.63669 12.9664 3.64572V10.7752H8.26735V3.64572C8.26735 1.63669 6.63066 0 4.6213 0C2.61194 0 0.975586 1.63669 0.975586 3.66198V31.2083C0.975586 33.2176 2.61228 34.854 4.6213 34.854C6.63033 34.854 8.26702 33.2173 8.26702 31.2083V26.3795V17.2569H11.1837C12.1722 17.2569 12.966 18.051 12.966 19.0393V31.192C12.966 33.2014 14.6027 34.8377 16.6117 34.8377C18.6208 34.8377 20.2575 33.201 20.2575 31.192V3.64572C20.2578 1.63669 18.6214 0 16.6121 0Z" fill="#EF3A3A"/>
<path d="M60.0382 35C62.2755 35 64.0891 33.1864 64.0891 30.9491C64.0891 28.7119 62.2755 26.8982 60.0382 26.8982C57.801 26.8982 55.9873 28.7119 55.9873 30.9491C55.9873 33.1864 57.801 35 60.0382 35Z" fill="#EF3A3A"/>
<path d="M50.6392 7.77791H52.9887C54.8199 7.77791 56.3106 6.28723 56.3106 4.45608C56.3106 2.62492 54.8199 1.13425 52.9887 1.13425H50.4773C45.5513 1.13425 41.5654 5.12044 41.5654 10.0461V31.192C41.5654 33.2013 43.2021 34.8377 45.2111 34.8377C47.2202 34.8377 48.8569 33.201 48.8569 31.192V17.3379H51.6925C53.5237 17.3379 55.0144 15.8472 55.0144 14.016C55.0144 12.1849 53.5237 10.6942 51.6925 10.6942H48.8569V9.55995C48.8569 8.57169 49.651 7.77791 50.6392 7.77791Z" fill="#EF3A3A"/>
<path d="M67.8149 1.13425H65.3035C60.3775 1.13425 56.3916 5.12044 56.3916 10.0461V22.2798C56.3916 24.2892 58.0283 25.9255 60.0373 25.9255C62.0463 25.9255 63.683 24.2888 63.683 22.2798V17.3379H66.5187C68.3499 17.3379 69.8405 15.8472 69.8405 14.016C69.8405 12.1849 68.3499 10.6942 66.5187 10.6942H63.683V9.55995C63.683 8.57136 64.4771 7.77757 65.4654 7.77757H67.8149C69.6461 7.77757 71.1367 6.2869 71.1367 4.45574C71.1367 2.62459 69.6461 1.13425 67.8149 1.13425Z" fill="#EF3A3A"/>
</g>
<defs>
<clipPath id="clip0_813_726">
<rect width="70.3" height="35" fill="white" transform="translate(0.973633)"/>
</clipPath>
</defs>
</svg>
