<svg width="115" height="25" viewBox="0 0 115 25" fill="none" xmlns="http://www.w3.org/2000/svg">
<path d="M48.0329 18.6011H38.1136L50.7772 1.90898C51.0532 1.54246 50.9765 1.00794 50.6086 0.733049C50.4706 0.626146 50.2866 0.565058 50.1026 0.565058H31.7818C30.172 0.565058 28.8535 1.87844 28.8535 3.48198C28.8535 5.08552 30.172 6.3989 31.7818 6.3989H40.0147L27.305 23.1063C27.0137 23.4728 27.0904 23.9921 27.4583 24.2822C27.6117 24.4044 27.7956 24.4655 27.9796 24.4502H48.0176C49.6274 24.3739 50.8692 22.9994 50.7926 21.3806C50.7159 19.8839 49.5201 18.6927 48.0176 18.6164V18.6011H48.0329ZM112.056 0.565058C110.447 0.565058 109.128 1.87844 109.128 3.48198V13.2712L93.3062 0.763592C92.9536 0.473427 92.417 0.519243 92.1257 0.885767C92.0031 1.03849 91.9417 1.22175 91.9417 1.42028V21.5333C91.9417 23.1368 93.2602 24.4502 94.87 24.4502C96.4798 24.4502 97.7983 23.1521 97.7983 21.5333V11.744L113.62 24.267C113.988 24.5571 114.525 24.496 114.816 24.1295C114.939 23.9768 115 23.7935 115 23.6103V3.48198C114.985 1.86316 113.682 0.565058 112.056 0.565058ZM70.1866 19.1509C63.4869 19.1509 58.4889 15.6384 58.4889 12.4924C58.4889 9.34636 63.5022 5.83384 70.1866 5.83384C76.8864 5.83384 81.8844 9.34636 81.8844 12.4924C81.8844 15.6384 76.9017 19.1509 70.1866 19.1509ZM70.1866 0C60.4973 0 52.6323 5.58949 52.6323 12.4924C52.6323 19.3952 60.4973 24.9847 70.1866 24.9847C79.876 24.9847 87.741 19.3952 87.741 12.4924C87.741 5.58949 79.876 0 70.1866 0ZM12.5563 19.1662C8.86148 19.1662 5.85655 16.1881 5.85655 12.5076C5.85655 8.82712 8.84615 5.83384 12.541 5.83384C16.2358 5.83384 19.2408 8.81185 19.2408 12.4924V12.5076C19.2408 16.1729 16.2512 19.1509 12.5563 19.1662ZM12.5563 0C5.62658 0 0.0153313 5.58949 0 12.4924C0 19.3952 5.61125 24.9847 12.541 25C19.4707 25 25.082 19.4105 25.0973 12.5076V12.4924C25.082 5.58949 19.4707 0 12.5563 0Z" fill="#005BFF"/>
</svg>
