<svg width="114" height="35" viewBox="0 0 114 35" fill="none" xmlns="http://www.w3.org/2000/svg">
<path d="M39.6299 1.80492H39.9726L40.4981 2.63574H40.8159L40.2675 1.78415C40.5646 1.76131 40.7702 1.60553 40.7702 1.26697C40.7702 0.886878 40.5417 0.706177 40.0868 0.706177H39.335V2.63366H39.632L39.6299 1.80492ZM39.6299 0.953344H40.0412C40.2468 0.953344 40.4753 0.999038 40.4753 1.24413C40.4753 1.53491 40.2468 1.55776 39.9955 1.55776H39.6299V0.953344Z" fill="#E31235"/>
<path d="M39.9925 3.37516C40.9043 3.37516 41.704 2.63574 41.704 1.66992C41.704 0.70618 40.9043 0.010376 39.9925 0.010376C39.0579 0.010376 38.2354 0.70618 38.2354 1.66992C38.2374 2.63574 39.0579 3.37516 39.9925 3.37516ZM39.9925 0.280389C40.7672 0.280389 41.3613 0.884804 41.3613 1.66992C41.3613 2.47789 40.7672 3.05945 39.9925 3.05945C39.2157 3.05945 38.6009 2.47581 38.6009 1.66992C38.603 0.886881 39.2178 0.280389 39.9925 0.280389Z" fill="#E31235"/>
<path d="M37.8786 26.2142C37.8786 27.234 37.0499 28.0628 36.0301 28.0628C35.0103 28.0628 34.1836 27.2361 34.1836 26.2142C34.1836 25.1944 35.0103 24.3677 36.0301 24.3677C37.0499 24.3677 37.8786 25.1944 37.8786 26.2142Z" fill="#E31235"/>
<path d="M60.7781 3.80303C58.0552 2.2868 45.9398 5.71597 42.0537 18.8137C41.5968 18.9383 39.3972 19.5116 39.3972 19.5116L38.4355 22.0996L41.844 21.059C41.844 21.059 41.4701 27.3378 47.1861 27.5248C51.6745 27.3565 54.0236 20.9738 52.5843 16.4833C52.3101 16.6287 48.7231 18.3547 48.7231 18.3547C48.7231 18.3547 49.5539 23.2835 47.5599 23.8858C46.914 23.9689 46.1559 21.9957 46.8517 19.0401C56.3873 14.0843 62.4335 4.73146 60.7781 3.80303ZM56.9751 6.79602C58.8029 6.63194 50.0129 15.9869 47.7676 16.4438C47.0407 16.0284 53.3382 7.69122 56.9751 6.79602Z" fill="#E31235"/>
<path d="M55.5403 15.7584V17.609C55.5403 17.609 57.9725 16.0284 58.1594 16.3213C58.2217 17.1521 55.1477 24.1808 55.0833 25.24C55.021 25.8839 55.6234 28.3182 58.4689 27.0491C59.8626 26.4468 63.5991 23.3832 63.5991 23.3832C63.5991 23.3832 62.9968 24.9451 63.2523 26.1955C63.5057 27.4458 65.0551 27.774 66.453 27.2568C67.8508 26.7376 69.446 25.6762 70.1335 24.8454C70.0296 24.5754 69.635 23.3271 69.635 23.3271C69.635 23.3271 68.3825 24.5089 68.0731 24.3552C67.7636 24.1994 71.6289 12.8693 71.6289 12.8693C71.6289 12.8693 67.666 12.7156 67.2693 12.7156C66.6171 15.6919 62.9158 23.2419 60.3611 23.5763C59.4866 23.514 63.4579 14.6576 63.6033 13.6585C63.8941 12.3479 62.9137 11.7456 61.7527 12.0156C60.5293 12.431 55.5403 15.7584 55.5403 15.7584Z" fill="#E31235"/>
<path d="M82.7758 12.5889C82.7758 12.5889 82.2961 13.7748 82.2067 13.9784C81.7062 13.1123 79.9719 11.4257 76.3911 13.6606C72.6545 16.0783 71.0573 20.2032 71.5599 24.5816C72.1062 28.206 76.0276 28.638 78.6716 25.5599C78.3995 26.3595 75.5935 34.9771 75.5935 34.9771L79.9469 35L87.0608 12.6802L82.7758 12.5889ZM78.0008 23.3707C77.386 23.7113 76.4285 24.2804 76.2934 22.1162C76.2249 19.5635 78.2791 16.7097 78.6716 16.261C79.6977 15.0979 80.9771 15.0771 80.9439 16.9174C80.8089 19.038 79.4381 22.3903 78.0008 23.3707Z" fill="#E31235"/>
<path d="M12.855 27.234C10.6782 24.9326 12.371 20.6976 12.7366 16.9444C12.2505 17.4283 7.409 28.6858 3.05139 28.1998C-0.822266 26.9931 -0.338318 22.6334 0.872589 19.3662H7.16598C5.23019 24.6917 7.89294 22.5129 9.70827 19.1253C13.3389 11.7414 13.5819 11.137 17.576 0C19.8753 0 22.1746 0 24.4759 0C22.4176 6.29547 20.4797 12.4684 19.6344 19.0048C19.6344 19.2457 19.7549 19.4888 19.9979 19.3683C21.4497 19.1274 29.438 1.21298 30.1649 0.00207668C32.2233 0.00207668 34.6451 0.00207668 36.8218 0.00207668C36.8218 0.606492 29.44 20.8222 30.6509 22.758C31.2574 23.8464 32.1049 21.7901 32.8297 20.9427L33.9202 22.0331C31.7414 24.4549 29.1991 28.8105 25.5685 28.0856C25.0845 27.9651 24.6006 27.7242 24.2371 27.3586C20.4839 24.0914 27.2612 12.2773 26.5363 11.5026C26.31 11.5275 26.0856 12.1278 25.6868 12.9544C23.6285 17.1916 18.9095 28.3265 15.0338 28.3265C14.4294 28.3203 13.2164 27.7179 12.855 27.234Z" fill="#E31235"/>
<path d="M91.2814 23.9129C99.3506 19.6716 101.288 14.2921 98.8043 12.7862C95.1322 10.7341 85.0793 14.4042 86.2196 24.4591C85.717 24.7541 84.666 25.3252 84.666 25.3252L85.3971 27.3316C85.3971 27.3316 86.878 26.4427 87.2602 26.1789C92.3967 30.3433 98.0317 23.5161 98.0317 23.5161L97.0472 21.9978C97.0493 21.9978 92.783 26.1 91.2814 23.9129ZM92.351 17.7566C93.5142 15.7044 95.3835 14.1093 96.2953 14.7469C97.2071 15.3846 95.3606 18.6227 91.0134 22.0622C90.841 21.7631 91.1879 19.8087 92.351 17.7566Z" fill="#E31235"/>
<path d="M104.506 12.9461L109.179 12.809C109.179 12.809 102.614 17.9891 103.571 22.8847C104.325 25.8611 107.104 24.4113 108.633 21.0382C108.928 20.3777 110.776 15.8851 109.613 15.8851C108.45 15.8851 107.237 18.1885 107.237 18.1885L105.966 16.9112C105.966 16.9112 108.542 13.239 111.476 12.2566C111.827 12.1465 113.946 11.7124 113.969 14.7448C114.062 16.1572 112.536 23.9108 107.223 26.6462C102.35 29.1511 100.211 26.1519 99.8264 25.2546C97.1532 18.6309 104.506 12.9461 104.506 12.9461Z" fill="#E31235"/>
</svg>
