<svg width="154" height="35" viewBox="0 0 154 35" fill="none" xmlns="http://www.w3.org/2000/svg">
<path fill-rule="evenodd" clip-rule="evenodd" d="M17.093 19.13C15.933 20.12 15.953 22.89 15.973 26.1V27.01L15.983 27.36C15.993 30.39 16.033 32.99 16.753 34.15C16.983 34.54 17.433 34.82 18.033 34.99C18.183 35 18.333 35 18.493 35C19.963 35 21.393 34.82 22.763 34.48C23.323 34.21 23.733 33.88 23.873 33.54C23.963 33.32 24.003 32.92 24.003 32.39C24.003 30.29 23.383 26.27 23.083 24.33L22.933 23.32L22.903 23.12L22.863 22.82C22.613 21.1 22.183 19.24 19.053 18.76C18.183 18.62 17.543 18.75 17.093 19.13ZM11.543 32.15C11.653 32.96 11.813 33.57 12.033 33.97C12.353 34.0967 12.6796 34.2167 13.013 34.33C13.313 34.07 13.493 33.34 13.433 31.58C13.343 29.05 12.913 25.71 12.233 25.75C11.503 25.79 11.223 29.6 11.543 32.15ZM26.413 25.88C25.603 26.29 25.913 30.95 26.763 32.44C26.853 32.59 27.033 32.61 27.233 32.58C27.873 32.1933 28.483 31.7667 29.063 31.3C29.133 31.15 29.193 30.97 29.233 30.74C29.393 29.93 27.483 25.37 26.413 25.88ZM0.75293 17.34C0.75293 23.15 3.64294 28.29 8.06296 31.43C8.18296 31.3 8.27296 30.94 8.34296 30.64L8.36296 30.52L8.46296 30.1C8.82296 28.41 8.89296 26.76 8.69296 24.81C8.57296 23.54 8.37296 22.79 8.19296 22.13C8.00296 21.42 7.84295 20.8 7.86295 19.84C7.87295 18.98 8.05296 18.38 8.24296 17.74C8.47296 17.02 8.72296 16.2 8.75296 14.78C8.85296 12.02 9.13296 11.33 9.96296 10.53C10.793 9.73 11.043 9.4 11.043 8.81C11.043 8.23 10.263 6.89 11.633 5.48C12.523 4.58 13.373 4.26 13.993 4.26C14.343 4.26 14.613 4.36 14.773 4.52C15.213 4.98 15.083 5.87 14.213 7.05C13.333 8.23 13.353 8.75 13.413 9.02C13.463 9.29 13.733 9.66 14.243 10.06C14.643 10.38 15.093 10.74 15.393 11.26C15.943 12.25 16.263 13.2 16.713 14.5L16.833 14.87L16.893 15.01C17.323 16.04 18.373 16.41 20.183 16.41C22.053 16.41 24.043 15.19 24.043 14.25C24.043 13.32 23.663 13.2 23.663 12.4C23.663 11.6 24.863 9.29 26.683 9.29C27.603 9.29 28.083 9.96 27.633 10.88C27.203 11.79 26.313 13.1 26.313 13.68C26.313 14.74 27.903 13.92 28.903 13.1C29.923 12.28 30.153 12.05 30.843 10.83C31.273 10.07 31.883 9.93 32.283 10.12C32.733 10.35 33.013 11 32.613 11.94C32.293 12.67 31.433 13.6 30.523 14.58C29.313 15.89 27.943 17.38 27.943 18.33C27.943 23.18 30.693 27.42 31.003 27.88C31.313 28.34 31.483 28.5 31.583 28.54C34.153 25.54 35.7131 21.66 35.7231 17.41V17.26V16.94C35.5131 7.55 27.763 0 18.243 0C8.58296 0 0.75293 7.76 0.75293 17.34Z" fill="#F14635"/>
<path fill-rule="evenodd" clip-rule="evenodd" d="M102.513 12C104.24 12 105.583 12.6133 106.543 13.84C107.503 15.0667 107.983 16.7533 107.983 18.9V19.1C107.983 21.1933 107.493 22.8667 106.513 24.12C105.533 25.3667 104.21 25.99 102.543 25.99C101.25 25.99 100.19 25.5367 99.3629 24.63V31.44H94.9829V12.25H99.0729L99.2029 13.5C100.043 12.5 101.146 12 102.513 12ZM72.0229 12C73.8095 12 75.2229 12.42 76.2629 13.26C77.3029 14.1 77.8362 15.25 77.8629 16.71V22.69C77.8762 23.93 78.0729 24.8767 78.4529 25.53V25.74H74.0829C73.9295 25.4667 73.7895 25.0633 73.6629 24.53C72.8629 25.5033 71.7395 25.99 70.2929 25.99C68.9728 25.99 67.8495 25.6067 66.9228 24.84C65.9962 24.0733 65.5328 23.1067 65.5328 21.94C65.5328 20.4733 66.0962 19.3667 67.2228 18.62C68.3428 17.8733 69.9762 17.5 72.1229 17.5H73.4729V16.79C73.4729 15.55 72.9162 14.93 71.8029 14.93C70.7628 14.93 70.2428 15.42 70.2428 16.4H65.8728C65.8728 15.0933 66.4495 14.0333 67.6028 13.22C68.7562 12.4067 70.2295 12 72.0229 12ZM86.2529 12C88.1062 12 89.5929 12.4033 90.7129 13.21C91.8396 14.0167 92.4029 15.0767 92.4029 16.39H88.0229C88.0229 15.31 87.4296 14.77 86.2429 14.77C85.7829 14.77 85.3962 14.8933 85.0829 15.14C84.7762 15.38 84.6229 15.6833 84.6229 16.05C84.6229 16.4233 84.8129 16.7267 85.1929 16.96C85.5729 17.1933 86.1796 17.3867 87.0129 17.54C87.8462 17.6867 88.5796 17.8633 89.2129 18.07C91.3263 18.77 92.3829 20.0233 92.3829 21.83C92.3829 23.0567 91.8129 24.0567 90.6729 24.83C89.5329 25.6033 88.0596 25.99 86.2529 25.99C85.0529 25.99 83.9796 25.7833 83.0329 25.37C82.0929 24.9567 81.3596 24.39 80.8329 23.67C80.3062 22.9567 80.0429 22.2067 80.0429 21.42H84.1229C84.1429 22.04 84.3596 22.4933 84.7729 22.78C85.1862 23.0667 85.7196 23.21 86.3729 23.21C86.9662 23.21 87.4129 23.0933 87.7129 22.86C88.0129 22.6267 88.1629 22.3233 88.1629 21.95C88.1629 21.5967 87.9662 21.31 87.5729 21.09C87.1862 20.8767 86.4496 20.6533 85.3629 20.42C84.2696 20.1867 83.3696 19.88 82.6629 19.5C81.9496 19.12 81.4062 18.66 81.0329 18.12C80.6662 17.58 80.4829 16.96 80.4829 16.26C80.4829 15.0267 81.0129 14.0067 82.0729 13.2C83.1396 12.4 84.5329 12 86.2529 12ZM53.4028 6.56V15.59L59.5928 6.56H65.2228L58.3028 15.62L64.6928 25.74H59.2928L55.2728 18.98L53.4028 20.95V25.74H48.8428V6.56H53.4028ZM110.683 12.25H115.063V25.74H110.683V12.25ZM153.623 12.25V14.52L147.373 22.51H153.773V25.75H141.843V23.4L148.073 15.5H140.733L143.663 12.25H153.623ZM120.923 25.57C119.723 25.57 118.753 24.64 118.753 23.49C118.753 22.33 119.723 21.4 120.923 21.4C122.113 21.4 123.083 22.33 123.083 23.49C123.083 24.64 122.113 25.57 120.923 25.57ZM131.073 6.57V16.65L131.513 16.09L134.823 12.19H140.073L135.143 17.68L140.403 25.55H135.383L132.313 20.57L131.073 21.75V25.55H126.693V6.57H131.073ZM73.4629 19.75H72.1929C70.6729 19.75 69.9128 20.4067 69.9128 21.72C69.9128 22.1 70.0462 22.41 70.3128 22.65C70.5795 22.89 70.9195 23.01 71.3328 23.01C71.8795 23.01 72.3329 22.8967 72.6929 22.67C73.0529 22.4433 73.3095 22.19 73.4629 21.91V19.75ZM101.423 15.25C100.39 15.25 99.6996 15.6067 99.3529 16.32V21.63C99.7329 22.3767 100.433 22.75 101.453 22.75C102.846 22.75 103.563 21.5967 103.603 19.29V18.84C103.603 16.4467 102.876 15.25 101.423 15.25ZM112.923 10.94C111.723 10.94 110.753 9.96 110.753 8.75C110.753 7.54 111.723 6.56 112.923 6.56C114.113 6.56 115.083 7.54 115.083 8.75C115.083 9.96 114.113 10.94 112.923 10.94Z" fill="black"/>
</svg>
