<svg width="92" height="55" viewBox="0 0 92 55" fill="none" xmlns="http://www.w3.org/2000/svg">
<path d="M81.6578 55H10.01C9.95237 54.9424 9.91507 54.8847 9.85742 54.8304C10.0142 54.7779 10.1618 54.7013 10.2949 54.6032C15.2688 49.6881 20.2291 44.7786 25.1759 39.8748L42.58 22.6403C43.5974 21.6229 44.6148 20.6665 45.6322 19.6424C45.9713 19.3032 46.1273 19.3032 46.4495 19.6424C52.1061 25.3364 57.8001 31.01 63.4737 36.687C69.4515 42.6647 75.4235 48.6368 81.3899 54.6032C81.5079 54.7152 81.635 54.8173 81.7698 54.9084C81.7155 54.9457 81.6952 54.9695 81.6578 55Z" fill="#78BE20"/>
<path d="M39.9414 10.0382C39.297 9.41084 38.69 8.80379 38.1203 8.2544C40.8152 5.50294 43.5045 2.75147 46.1881 0C47.1004 0.89191 47.972 1.72616 48.8062 2.60112C48.8808 2.67572 48.8435 2.94025 48.7689 3.05556L46.2627 8.01023C46.1881 8.16284 46.1101 8.2951 45.9982 8.54267C46.2255 8.44771 46.3577 8.39006 46.5103 8.33241C48.206 7.5558 49.9457 6.79615 51.6549 5.9992C51.7643 5.92454 51.8983 5.89487 52.029 5.91634C52.1597 5.93781 52.2771 6.00877 52.3569 6.1145C53.1166 6.87415 53.8932 7.61345 54.5782 8.27814C51.8279 11.1065 49.1114 13.8568 46.4391 16.5902C45.7608 15.9119 45.1097 15.2812 44.4857 14.6741C45.8151 13.3176 47.1818 11.9407 48.5553 10.574L48.4976 10.4587L48.0805 10.6283L43.1835 12.8496C42.9189 12.9649 42.729 13.0022 42.5052 12.7546C42.2203 12.4155 41.7082 12.1273 41.6506 11.7678C41.5929 11.4083 41.9355 10.9505 42.1254 10.5537C42.8036 9.05475 43.5124 7.5558 44.1364 5.9992C42.7324 7.3625 41.3284 8.70884 39.9414 10.0382ZM84.5809 49.5163C84.6083 49.4231 84.6276 49.3278 84.6386 49.2314C85.3779 46.6303 86.1206 44.0325 86.8396 41.4314C86.8769 41.2788 86.9142 41.0312 86.8192 40.9363C85.9273 40.024 85.0151 39.1525 84.0689 38.2402L76.001 46.4912C76.5707 47.0406 77.2151 47.668 77.8798 48.3327C79.6432 46.6065 81.4678 44.8397 83.2143 43.1508C83.2143 43.0932 83.2143 43.1508 83.1939 43.2085C82.5869 45.7519 81.9968 48.2954 81.3525 50.8185C81.1829 51.4968 81.2202 51.9749 81.7899 52.4497C82.4343 52.9822 83.004 53.6265 83.6483 54.2708L91.7535 45.9961C91.2042 45.4637 90.5768 44.8566 89.8375 44.1173C88.1486 45.8537 86.4021 47.6375 84.5809 49.5163ZM54.2526 24.4207C54.7274 23.9256 55.27 23.3762 55.9042 22.7251C54.7647 21.6059 53.571 20.4664 52.4485 19.3846C53.0758 18.7572 53.6456 18.1705 54.2696 17.5262C55.1615 18.4181 56.0907 19.3473 57.003 20.2392C57.5354 19.6898 58.0848 19.1371 58.7495 18.4758C57.8372 17.5839 56.8707 16.6716 56.0161 15.8373C56.4536 15.3625 56.8707 14.9251 57.2878 14.4808C58.485 15.6576 59.6787 16.814 60.8555 17.9738C61.3676 17.4618 61.9 16.9124 62.4324 16.3596C60.5356 14.4989 58.6059 12.6133 56.6435 10.7029L48.596 18.92C50.4578 20.7174 52.3739 22.586 54.2526 24.4241V24.4207ZM12.421 39.3254C11.8344 38.793 11.3189 38.308 10.8644 37.9011C11.9836 36.7039 13.1027 35.5272 14.2557 34.3131C13.7606 33.8587 13.2384 33.3466 12.6788 32.8311C10.8204 34.6522 8.92124 36.514 7.05942 38.3148L15.2596 46.515C17.118 44.6938 19.0171 42.8524 20.9332 40.9736C20.3635 40.4412 19.831 39.9562 19.2816 39.417C18.1252 40.5361 16.9281 41.7129 15.7886 42.832L14.0251 41.1805C14.9747 40.1631 15.8836 39.1864 16.8331 38.1826C16.3007 37.6874 15.7513 37.1652 15.0493 36.514C14.137 37.4636 13.2383 38.4505 12.421 39.3254ZM32.45 13.9857C32.3467 13.9297 32.227 13.9123 32.112 13.9365C31.9971 13.9608 31.8945 14.0251 31.8226 14.118C31.2529 14.7046 30.6459 15.2744 30.0592 15.8441C29.9846 15.9187 29.9269 16.0137 29.8319 16.129C31.2732 16.6038 32.6603 17.0412 34.0643 17.4855C35.0817 17.8246 36.1703 17.9806 37.0622 18.5029C37.9541 19.0251 38.6188 19.9272 39.3581 20.6869C39.7379 21.0871 40.0974 21.5042 40.4772 21.9383C41.2369 21.121 41.9016 20.419 42.5832 19.7C41.6709 18.7708 40.6841 17.7839 39.7379 16.7767C39.5784 16.6041 39.4622 16.396 39.3988 16.1697C39.0596 14.7826 38.7205 13.3786 38.3814 11.995C38.1169 10.8759 37.832 9.7364 37.5471 8.53927C36.7298 9.33622 35.9702 10.0755 35.2309 10.8182C35.1956 10.8812 35.1741 10.9509 35.1676 11.0228C35.1612 11.0947 35.17 11.1671 35.1936 11.2354C35.3462 11.8051 35.5327 12.3545 35.6684 12.931C35.8956 13.7483 36.1228 14.5622 36.3703 15.4745C35.0071 14.9183 33.7353 14.4605 32.45 13.9857ZM75.1159 29.2262L72.9895 27.1575C70.3307 29.8705 67.655 32.6242 64.9216 35.4119C66.7428 37.1957 68.6521 39.0372 70.5207 40.8583C71.1074 40.2513 71.7551 39.6069 72.4571 38.8846C71.338 37.7824 70.1612 36.6463 68.9844 35.4933C71.0802 33.3296 73.1286 31.2406 75.1294 29.2262H75.1159ZM8.30402 53.3484C10.2031 51.5069 12.0616 49.6858 13.9404 47.8443C13.2621 47.2373 12.6313 46.6303 11.9666 46.0232C10.8644 47.0847 9.70802 48.2242 8.51089 49.384C6.42185 47.2407 4.35316 45.1313 2.28447 43.0084C1.60621 43.7307 0.927957 44.4124 0.273438 45.1347C2.91186 47.8274 5.59098 50.5777 8.30402 53.3484ZM80.1214 34.3131C77.4626 37.0261 74.7869 39.7799 72.1112 42.5132C72.7182 43.1203 73.4033 43.8053 74.146 44.5243C76.8047 41.8112 79.4974 39.0575 82.1731 36.3072C81.5627 35.7001 80.8607 35.0354 80.1214 34.3131ZM68.7911 27.6119C68.2878 28.0509 67.6717 28.3403 67.0125 28.4476C66.3533 28.5549 65.6772 28.4757 65.0607 28.2189C64.474 30.0401 63.8839 31.8239 63.2972 33.645C62.5749 32.943 61.8932 32.2885 61.2285 31.6102C61.1336 31.4949 61.1709 31.2101 61.2082 31.0405C61.683 28.8565 62.1577 26.6759 62.6495 24.4749C62.6721 24.3786 62.6588 24.2773 62.6122 24.1901C61.1878 25.6721 59.7669 27.1507 58.3595 28.5988L56.2535 26.564L64.2061 18.3265C65.9899 20.0527 67.7161 21.6466 69.3303 23.3558C70.4325 24.4241 70.0934 26.5877 68.7911 27.6153V27.6119ZM66.7224 23.912C66.1357 23.2677 65.4507 22.6979 64.8233 22.1078C64.2366 22.7149 63.6092 23.3423 62.9445 24.0239C63.3243 24.4241 63.7211 24.8582 64.1213 25.2753C64.1889 25.3715 64.2727 25.4553 64.3689 25.5229C64.5299 25.6599 64.7091 25.774 64.9013 25.862C65.1919 25.9907 65.5174 26.0176 65.8252 25.9382C66.133 25.8588 66.4049 25.6778 66.5969 25.4245C67.0412 24.8989 67.1192 24.3291 66.7224 23.912ZM35.899 24.2511C35.899 27.344 32.996 30.135 29.7675 30.135C26.6916 30.135 23.8633 27.2897 23.8633 24.1935C23.8633 20.7581 26.3694 18.2146 29.7845 18.2146C30.5826 18.2034 31.3749 18.3507 32.1156 18.6481C32.8563 18.9455 33.5306 19.3869 34.0994 19.9469C34.6682 20.5068 35.1202 21.1741 35.4291 21.9101C35.738 22.646 35.8977 23.436 35.899 24.2342V24.2511ZM33.0537 24.2511C32.5152 22.8771 31.4972 21.7446 30.188 21.0633C29.8066 20.8503 29.3707 20.7547 28.9351 20.7884C28.4995 20.8222 28.0836 20.9839 27.7395 21.2532C27.3449 21.5021 27.0276 21.8561 26.8233 22.2755C26.619 22.6949 26.5358 23.163 26.5831 23.6271C26.7357 25.2583 29.0892 27.405 30.7205 27.3847C32.2364 27.3474 33.6031 25.6009 33.0537 24.2342V24.2511ZM29.0587 32.9091C28.4144 33.5874 27.787 34.2656 27.1426 34.9439C27.0477 35.0388 26.7832 35.0015 26.6102 34.9642C24.5754 34.4318 22.5101 33.8824 20.4618 33.35C20.3204 33.3043 20.1694 33.2973 20.0243 33.3296L24.199 37.6196C23.5208 38.3589 22.8425 39.0812 22.2049 39.7459L13.9505 31.6611C14.0658 31.5288 14.1404 31.4339 14.215 31.3559C15.5071 30.0638 16.8162 28.7921 18.1049 27.5237C18.496 27.107 18.9799 26.7885 19.5173 26.594C20.0548 26.3995 20.6305 26.3346 21.1977 26.4046C21.9481 26.4902 22.641 26.8482 23.1448 27.4109C23.6487 27.9735 23.9285 28.7015 23.9311 29.4568C23.9514 30.0265 23.8565 30.6132 23.8158 31.2202C25.5928 31.7696 27.3631 32.3597 29.0587 32.9091ZM21.2011 29.7586C20.689 29.2465 20.0447 29.1312 19.5055 29.5483C18.9188 30.0028 18.3863 30.5352 17.8098 31.0473C18.5322 31.7255 19.1969 32.3394 19.9158 33.0007C20.221 32.7158 20.6178 32.3563 20.9976 31.9833C21.1513 31.8459 21.291 31.6937 21.4148 31.5288C21.6094 31.2619 21.6962 30.9314 21.6579 30.6032C21.6196 30.2751 21.4589 29.9734 21.2079 29.7586H21.2011Z" fill="black"/>
</svg>
