<svg width="40" height="39" viewBox="0 0 40 39" fill="none" xmlns="http://www.w3.org/2000/svg">
<circle cx="19.8838" cy="19.5" r="19.5" fill="#282828"/>
<path d="M32.053 16.2707L30.228 15.9611C30.0379 15.3473 29.7935 14.7553 29.4948 14.1905L30.5702 12.686C31.0264 12.0451 30.9558 11.1706 30.3964 10.6166L28.7779 8.9981C28.4737 8.69395 28.0718 8.52558 27.6427 8.52558C27.306 8.52558 26.9855 8.62877 26.7139 8.8243L25.204 9.89971C24.6174 9.59012 24.0037 9.33485 23.3682 9.14475L23.0641 7.34155C23.0017 6.96619 22.808 6.6252 22.5175 6.37947C22.227 6.13373 21.8586 5.99924 21.4781 6H19.1915C18.404 6 17.7359 6.56486 17.6056 7.34155L17.2906 9.1882C16.6823 9.3783 16.0902 9.62814 15.5254 9.9323L14.0318 8.85689C13.7602 8.66136 13.4343 8.55817 13.0976 8.55817C12.6685 8.55817 12.2611 8.72654 11.9624 9.03069L10.3384 10.6492C9.78445 11.2032 9.70841 12.0777 10.1646 12.7186L11.2509 14.2448C10.9522 14.8151 10.7132 15.4071 10.5285 16.0208L8.72533 16.325C8.34998 16.3873 8.00899 16.581 7.76326 16.8716C7.51752 17.1621 7.38303 17.5304 7.38379 17.9109V20.1975C7.38379 20.9851 7.94865 21.6531 8.72533 21.7835L10.572 22.0985C10.7621 22.7068 11.0119 23.2988 11.3161 23.8637L10.2461 25.3519C9.78988 25.9928 9.86049 26.8672 10.4199 27.4212L12.0385 29.0398C12.3426 29.3439 12.7445 29.5123 13.1736 29.5123C13.5103 29.5123 13.8308 29.4091 14.1024 29.2136L15.6286 28.1273C16.1771 28.4152 16.7529 28.6487 17.3449 28.8334L17.649 30.6583C17.7114 31.0337 17.9051 31.3746 18.1956 31.6204C18.4861 31.8661 18.8545 32.0006 19.235 31.9998H21.527C22.3146 31.9998 22.9826 31.435 23.113 30.6583L23.4226 28.8334C24.0363 28.6433 24.6283 28.3989 25.1932 28.1001L26.6977 29.1755C26.9692 29.3711 27.2951 29.4743 27.6318 29.4743C28.0609 29.4743 28.4628 29.3059 28.767 29.0017L30.3855 27.3832C30.9395 26.8292 31.0156 25.9548 30.5593 25.3139L29.4839 23.8039C29.7827 23.2337 30.0325 22.6416 30.2172 22.0333L32.0421 21.7292C32.4174 21.6668 32.7584 21.4731 33.0042 21.1826C33.2499 20.8921 33.3844 20.5237 33.3836 20.1432V17.8566C33.3945 17.0691 32.8296 16.401 32.053 16.2707ZM31.928 20.1432C31.928 20.2138 31.8792 20.2736 31.8085 20.2844L29.5274 20.6646C29.2395 20.7135 29.0114 20.9253 28.9408 21.2023C28.7344 22.0007 28.4194 22.7666 27.9957 23.4781C27.8491 23.7279 27.86 24.0375 28.0283 24.2765L29.3699 26.1666C29.4079 26.2209 29.4025 26.3024 29.3536 26.3512L27.735 27.9698C27.697 28.0078 27.659 28.0132 27.6318 28.0132C27.5993 28.0132 27.5721 28.0024 27.5504 27.9861L25.6657 26.6445C25.4321 26.4762 25.1171 26.4653 24.8673 26.612C24.1558 27.0356 23.39 27.3506 22.5916 27.557C22.3091 27.6276 22.0973 27.8612 22.0539 28.1436L21.6682 30.4248C21.6574 30.4954 21.5976 30.5442 21.527 30.5442H19.2404C19.1698 30.5442 19.1101 30.4954 19.0992 30.4248L18.719 28.1436C18.6701 27.8557 18.4583 27.6276 18.1813 27.557C17.4046 27.356 16.6551 27.0465 15.9545 26.6445C15.8404 26.5794 15.71 26.5468 15.5851 26.5468C15.4385 26.5468 15.2864 26.5902 15.1615 26.6826L13.2605 28.035C13.2333 28.0513 13.2062 28.0621 13.179 28.0621C13.1573 28.0621 13.1139 28.0567 13.0758 28.0187L11.4573 26.4001C11.4084 26.3512 11.403 26.2752 11.441 26.2155L12.7771 24.3417C12.9455 24.1027 12.9564 23.7877 12.8097 23.5378C12.3861 22.8317 12.0602 22.0659 11.8538 21.2675C11.7777 20.9905 11.5496 20.7787 11.2672 20.7298L8.96974 20.3388C8.89914 20.3279 8.85026 20.2681 8.85026 20.1975V17.9109C8.85026 17.8403 8.89914 17.7806 8.96974 17.7697L11.2346 17.3895C11.5225 17.3406 11.756 17.1288 11.8266 16.8464C12.0276 16.048 12.3372 15.2767 12.7554 14.5652C12.902 14.3154 12.8857 14.0058 12.7174 13.7723L11.365 11.8713C11.3269 11.817 11.3324 11.7355 11.3813 11.6866L12.9998 10.0681C13.0378 10.0301 13.0758 10.0246 13.103 10.0246C13.1356 10.0246 13.1627 10.0355 13.1845 10.0518L15.0583 11.3879C15.2973 11.5563 15.6123 11.5671 15.8621 11.4205C16.5682 10.9968 17.334 10.671 18.1324 10.4646C18.4094 10.3885 18.6212 10.1604 18.6701 9.87798L19.0612 7.58052C19.072 7.50992 19.1318 7.46103 19.2024 7.46103H21.489C21.5596 7.46103 21.6193 7.50992 21.6302 7.58052L22.0104 9.84539C22.0593 10.1333 22.2711 10.3668 22.5535 10.4374C23.3737 10.6438 24.1558 10.9643 24.8836 11.3933C25.1334 11.54 25.443 11.5291 25.682 11.3607L27.5558 10.0138C27.583 9.99747 27.6101 9.98661 27.6373 9.98661C27.659 9.98661 27.7024 9.99204 27.7405 10.0301L29.359 11.6486C29.4079 11.6975 29.4133 11.7735 29.3753 11.8333L28.0338 13.7179C27.8654 13.9515 27.8545 14.2665 28.0012 14.5163C28.4248 15.2279 28.7398 15.9937 28.9462 16.7921C29.0168 17.0745 29.2504 17.2863 29.5328 17.3298L31.814 17.7154C31.8846 17.7263 31.9335 17.786 31.9335 17.8566V20.1432H31.928Z" fill="#EF6C1E"/>
<path d="M20.386 13.3866C17.2901 13.3866 14.7754 15.9013 14.7754 18.9972C14.7754 22.0931 17.2901 24.6078 20.386 24.6078C23.4818 24.6078 25.9965 22.0931 25.9965 18.9972C25.9965 15.9013 23.4818 13.3866 20.386 13.3866ZM20.386 23.1413C18.0994 23.1413 16.2419 21.2838 16.2419 18.9972C16.2419 16.7106 18.0994 14.8531 20.386 14.8531C22.6726 14.8531 24.5301 16.7106 24.5301 18.9972C24.5301 21.2838 22.6726 23.1413 20.386 23.1413Z" fill="#EF6C1E"/>
</svg>
