<svg width="40" height="39" viewBox="0 0 40 39" fill="none" xmlns="http://www.w3.org/2000/svg">
<circle cx="19.8838" cy="19.5" r="19" stroke="#EF6C1E"/>
<path d="M27.5716 30C27.123 30 26.7594 29.6327 26.7594 29.1797C26.7594 25.9682 24.1726 23.3555 20.9929 23.3555H19.7747C16.595 23.3555 14.0082 25.9682 14.0082 29.1797C14.0082 29.6327 13.6445 30 13.196 30C12.7474 30 12.3838 29.6327 12.3838 29.1797C12.3838 25.0636 15.6993 21.7148 19.7747 21.7148H20.9929C25.0683 21.7148 28.3838 25.0636 28.3838 29.1797C28.3838 29.6327 28.0202 30 27.5716 30ZM20.3026 20.0742C17.2797 20.0742 14.8203 17.5903 14.8203 14.5371C14.8203 11.4839 17.2797 9 20.3026 9C23.3255 9 25.7848 11.4839 25.7848 14.5371C25.7848 17.5903 23.3255 20.0742 20.3026 20.0742ZM20.3026 10.6406C18.1753 10.6406 16.4447 12.3886 16.4447 14.5371C16.4447 16.6856 18.1753 18.4336 20.3026 18.4336C22.4298 18.4336 24.1604 16.6856 24.1604 14.5371C24.1604 12.3886 22.4298 10.6406 20.3026 10.6406Z" fill="#EF6C1E"/>
</svg>
