<svg width="50" height="35" viewBox="0 0 50 35" fill="none" xmlns="http://www.w3.org/2000/svg">
<rect x="16.5283" y="9.21999" width="19.7024" height="15.7619" fill="white"/>
<path d="M39.659 0.0896149H10.8908C5.24648 0.0896149 0.670898 4.66519 0.670898 10.3095V24.6905C0.670898 30.3348 5.24648 34.9104 10.8908 34.9104H39.659C45.3032 34.9104 49.8788 30.3348 49.8788 24.6905V10.3095C49.8788 4.66519 45.3032 0.0896149 39.659 0.0896149ZM32.7473 18.1997L19.2915 24.6173C18.933 24.7883 18.5188 24.5269 18.5188 24.1297V10.8933C18.5188 10.4905 18.9439 10.2294 19.3032 10.4115L32.759 17.2303C33.159 17.433 33.1521 18.0067 32.7473 18.1997Z" fill="#F61C0D"/>
</svg>
